<svg xmlns="http://www.w3.org/2000/svg" version="1.1" xmlns:xlink="http://www.w3.org/1999/xlink" xmlns:svgjs="http://svgjs.dev/svgjs" width="1500" height="534" viewBox="0 0 1500 534"><g transform="matrix(1,0,0,1,-19.750814170113472,-0.3877593217827666)"><svg viewBox="0 0 401 143" data-background-color="#636365" preserveAspectRatio="xMidYMid meet" height="534" width="1500" xmlns="http://www.w3.org/2000/svg" xmlns:xlink="http://www.w3.org/1999/xlink"><g id="tight-bounds" transform="matrix(1,0,0,1,5.280050988143671,0.10383817043995691)"><svg viewBox="0 0 395.52 142.79222330156512" height="142.79222330156512" width="395.52"><g><svg viewBox="0 0 655.9669595657392 236.8198335577462" height="142.79222330156512" width="395.52"><g transform="matrix(1,0,0,1,260.44695956573923,93.38923910728317)"><svg viewBox="0 0 395.52 50.04135534317984" height="50.04135534317984" width="395.52"><g id="textblocktransform"><svg viewBox="0 0 395.52 50.04135534317984" height="50.04135534317984" width="395.52" id="textblock"><g><svg viewBox="0 0 395.52 50.04135534317984" height="50.04135534317984" width="395.52"><g transform="matrix(1,0,0,1,0,0)"><svg width="395.52" viewBox="0.81 -25.29 224.79 28.439999999999998" height="50.04135534317984" data-palette-color="#0e376f"><path d="M0.81-21.29L0.81-21.66Q0.81-23.22 2.49-23.56L2.49-23.56 3.54-23.75Q3.71-23.8 3.85-23.8 3.98-23.8 4.1-23.8L4.1-23.8Q5.59-23.8 5.86-22.09L5.86-22.09Q5.96-21.26 6.1-20 6.25-18.73 6.48-17.21 6.71-15.7 7.02-14.04 7.32-12.38 7.71-10.78 8.11-9.18 8.59-7.74 9.08-6.3 9.69-5.2 10.3-4.1 11.02-3.45 11.74-2.81 12.6-2.81L12.6-2.81Q13.21-2.81 13.83-3.17 14.45-3.54 15.06-4.14 15.67-4.74 16.24-5.49 16.8-6.25 17.26-7.03 17.72-7.81 18.1-8.53 18.48-9.25 18.7-9.79L18.7-9.79Q18.85-10.25 18.85-10.64L18.85-10.64Q18.85-10.84 18.82-11.04 18.8-11.23 18.75-11.45L18.75-11.45Q18.29-12.96 18.04-14.48 17.8-15.99 17.8-17.75L17.8-17.75Q17.8-18.77 17.97-19.78 18.14-20.78 18.55-21.61L18.55-21.61Q18.77-22.05 19.21-22.36 19.65-22.68 20.18-22.88 20.7-23.07 21.28-23.16 21.85-23.24 22.34-23.24L22.34-23.24Q22.88-23.24 23.32-23.03 23.75-22.83 24.1-22.34L24.1-22.34Q24.78-21.41 25.06-20.21 25.34-19.02 25.34-17.8L25.34-17.8Q25.34-16.48 25.1-15.1 24.85-13.72 24.51-12.35L24.51-12.35Q24.34-12.01 24.34-11.6L24.34-11.6Q24.34-11.4 24.4-11.18 24.46-10.96 24.56-10.69L24.56-10.69Q25-9.55 25.6-8.36 26.2-7.18 26.98-6.23 27.76-5.27 28.74-4.66 29.71-4.05 30.96-4.05L30.96-4.05Q32.06-4.05 32.93-4.98 33.81-5.91 34.41-7.32 35.01-8.74 35.33-10.41 35.64-12.08 35.64-13.6L35.64-13.6Q35.64-15.21 35.52-16.77 35.4-18.33 35.21-19.65L35.21-19.65Q35.16-19.78 35.16-19.9 35.16-20.02 35.16-20.14L35.16-20.14Q35.16-21.53 36.65-22.05L36.65-22.05 37.74-22.41Q38.21-22.56 38.6-22.56L38.6-22.56Q39.89-22.56 40.16-20.95L40.16-20.95Q40.43-19.43 40.59-17.92 40.75-16.41 40.75-14.89L40.75-14.89Q40.75-11.67 39.99-8.84 39.23-6.01 37.88-3.89 36.52-1.78 34.67-0.56 32.81 0.66 30.59 0.66L30.59 0.66Q28.42 0.66 26.22-0.65 24.02-1.95 22.24-4.81L22.24-4.81Q21.9-5.44 21.46-5.44L21.46-5.44Q21.04-5.44 20.7-4.81L20.7-4.81Q19.85-3.3 18.82-2.01 17.8-0.73 16.65 0.2 15.5 1.12 14.26 1.64 13.01 2.15 11.74 2.15L11.74 2.15Q9.69 2.15 8.14 1.04 6.59-0.07 5.46-1.93 4.32-3.78 3.54-6.19 2.76-8.59 2.23-11.19 1.71-13.79 1.38-16.41 1.05-19.02 0.81-21.29L0.81-21.29ZM44.36-4.86L44.04-4.86Q43.63-4.86 43.42-5.27 43.21-5.69 43.21-6.45L43.21-6.45Q43.21-6.57 43.21-6.73 43.21-6.88 43.26-7.35L43.26-7.35Q43.33-9.11 44.99-9.4L44.99-9.4 45.55-9.45Q46.12-9.52 46.43-9.8 46.75-10.08 46.9-10.6L46.9-10.6Q47.31-11.99 47.73-13.4 48.14-14.82 48.61-16.21L48.61-16.21Q48.85-16.99 49.11-17.88 49.36-18.77 49.67-19.65 49.97-20.53 50.38-21.39 50.78-22.24 51.29-22.95L51.29-22.95Q51.51-23.24 51.9-23.56 52.29-23.88 52.79-24.13 53.29-24.39 53.87-24.55 54.44-24.71 55-24.71L55-24.71Q55.73-24.71 56.44-24.24L56.44-24.24Q57.39-23.58 58.32-22.66 59.25-21.73 60.4-20.29 61.55-18.85 63.06-16.81 64.57-14.77 66.7-11.89L66.7-11.89Q67.01-11.52 67.37-11.34 67.72-11.16 68.21-11.16L68.21-11.16 69.6-11.16Q70.46-11.16 70.93-10.75 71.41-10.35 71.41-9.64L71.41-9.64Q71.41-9.5 71.4-9.3 71.38-9.11 71.31-8.91L71.31-8.91 70.85-7.54Q70.8-7.35 70.77-7.2 70.75-7.06 70.75-6.91L70.75-6.91Q70.75-6.4 71.09-5.86L71.09-5.86 73.7-2.29Q74.14-1.64 74.14-1.05L74.14-1.05Q74.14-0.17 73.14 0.49L73.14 0.49 72.21 1.15Q71.87 1.37 71.57 1.49 71.26 1.61 70.94 1.61L70.94 1.61Q70.51 1.61 70.13 1.35 69.75 1.1 69.41 0.66L69.41 0.66Q68.23-1 67.05-2.61 65.87-4.22 64.65-5.81L64.65-5.81Q64.08-6.59 63.16-6.59L63.16-6.59Q60.18-6.47 57.26-6.26 54.34-6.05 51.41-5.76L51.41-5.76Q50.36-5.66 50.1-4.64L50.1-4.64 49-0.61Q48.56 1 47.04 1L47.04 1 46.65 1 45.9 0.9Q45.07 0.83 44.64 0.39 44.21-0.05 44.21-0.76L44.21-0.76Q44.21-0.9 44.24-1.07 44.26-1.25 44.31-1.44L44.31-1.44Q44.43-1.93 44.57-2.44 44.7-2.95 44.85-3.44L44.85-3.44Q44.89-3.64 44.92-3.8 44.94-3.96 44.94-4.1L44.94-4.1Q44.94-4.86 44.36-4.86L44.36-4.86ZM55.66-17.75L55.66-17.75Q55.42-17.97 55.22-18.12 55.03-18.26 54.81-18.26L54.81-18.26Q54.2-18.26 53.95-17.41L53.95-17.41Q53.46-15.97 53.01-14.56 52.56-13.16 52.1-11.69L52.1-11.69Q52.05-11.57 52.05-11.47 52.05-11.38 52.05-11.25L52.05-11.25Q52.05-10.35 53-10.35L53-10.35 53.24-10.35Q54.71-10.55 56.17-10.66 57.64-10.77 59.1-10.84L59.1-10.84Q59.59-10.89 59.87-11.1 60.15-11.3 60.15-11.65L60.15-11.65Q60.15-11.96 59.86-12.4L59.86-12.4Q58.84-13.77 57.8-15.1 56.76-16.43 55.66-17.75ZM79.58-12.21L79.58-12.21Q79.58-11.18 79.68-10.08 79.78-8.98 79.91-7.89 80.05-6.79 80.15-5.68 80.24-4.57 80.24-3.49L80.24-3.49Q80.24-2.29 79.41-1.55 78.58-0.81 77.19-0.81L77.19-0.81Q76.51-0.81 75.91-1.22 75.31-1.64 75.24-2.54L75.24-2.54Q75.12-3.69 75.01-5.11 74.9-6.54 74.81-8.07 74.73-9.59 74.65-11.15 74.58-12.7 74.53-14.12 74.48-15.55 74.46-16.76 74.43-17.97 74.43-18.8L74.43-18.8Q74.43-19.53 74.53-20.19 74.63-20.85 74.95-21.34 75.26-21.83 75.81-22.12 76.36-22.41 77.29-22.41L77.29-22.41Q78-22.41 78.88-21.91 79.76-21.41 80.77-20.56 81.78-19.7 82.93-18.59 84.08-17.48 85.3-16.26 86.52-15.04 87.8-13.78 89.08-12.52 90.4-11.4L90.4-11.4Q90.99-10.89 91.73-10.21 92.48-9.52 93.27-8.91 94.06-8.3 94.86-7.87 95.65-7.45 96.38-7.45L96.38-7.45Q97.07-7.45 97.27-8.04 97.48-8.64 97.48-9.96L97.48-9.96Q97.48-10.94 97.32-12.38 97.16-13.82 96.87-15.45 96.58-17.09 96.14-18.74 95.7-20.39 95.14-21.75L95.14-21.75Q95.01-22.05 94.9-22.33 94.79-22.61 94.79-22.95L94.79-22.95Q94.79-23.51 95.16-23.95 95.53-24.39 96.04-24.68 96.55-24.98 97.11-25.13 97.68-25.29 98.04-25.29L98.04-25.29Q98.85-25.29 99.48-24.43 100.12-23.56 100.59-22.18 101.07-20.8 101.39-19.08 101.7-17.36 101.91-15.63 102.12-13.89 102.2-12.32 102.29-10.74 102.29-9.69L102.29-9.69Q102.29-7.71 102.13-6.21 101.97-4.71 101.47-3.69 100.97-2.66 100.02-2.14 99.07-1.61 97.48-1.61L97.48-1.61Q96.21-1.61 94.82-2.14 93.43-2.66 92-3.55 90.57-4.44 89.12-5.59 87.67-6.74 86.27-7.98 84.88-9.23 83.58-10.47 82.27-11.72 81.15-12.79L81.15-12.79Q80.68-13.26 80.29-13.26L80.29-13.26Q79.95-13.26 79.77-12.98 79.58-12.7 79.58-12.21ZM104.29-18.65L104.29-18.65Q103.97-18.6 103.75-18.58 103.53-18.55 103.39-18.55L103.39-18.55Q102.56-18.6 102.21-19.03 101.87-19.46 101.87-20.46L101.87-20.46Q101.87-22.44 103.78-22.95L103.78-22.95Q105.46-23.34 107.39-23.52 109.32-23.71 111.69-23.71L111.69-23.71Q114.86-23.71 118-23.1 121.14-22.49 123.98-21.42 126.82-20.36 129.26-18.91 131.71-17.46 133.5-15.76 135.3-14.06 136.31-12.19 137.32-10.33 137.32-8.45L137.32-8.45Q137.32-6.54 136.04-4.82 134.76-3.1 132.59-1.78 130.41-0.46 127.56 0.32 124.7 1.1 121.57 1.1L121.57 1.1Q119.08 1.1 116.37 0.63 113.66 0.17 110.39-0.85L110.39-0.85Q108.88-1.27 108.88-2.71L108.88-2.71Q108.88-3.03 109.03-3.3 109.17-3.56 109.33-3.81 109.49-4.05 109.64-4.28 109.78-4.52 109.78-4.76L109.78-4.76Q109.78-6.15 109.65-7.74 109.51-9.33 109.28-10.91 109.05-12.5 108.74-13.95 108.44-15.41 108.12-16.53 107.81-17.65 107.48-18.32 107.15-18.99 106.88-18.99L106.88-18.99Q106.46-18.99 105.86-18.9 105.27-18.8 104.29-18.65ZM113.69-19.04L113.69-19.04Q112.98-19.04 112.98-18.55L112.98-18.55Q112.98-18.43 113.05-18.14 113.13-17.85 113.27-17.21L113.27-17.21Q113.49-16.19 113.69-15.01 113.88-13.84 114.08-12.39 114.27-10.94 114.46-9.14 114.64-7.35 114.84-5.1L114.84-5.1Q114.86-4.74 115.5-4.41 116.13-4.08 117.18-3.82 118.23-3.56 119.58-3.41 120.94-3.25 122.38-3.25L122.38-3.25Q124.28-3.25 126.03-3.7 127.78-4.15 129.11-4.91 130.44-5.66 131.23-6.67 132.02-7.67 132.02-8.74L132.02-8.74Q132.02-10.52 130.62-12.21 129.22-13.89 126.75-15.27 124.28-16.65 120.94-17.64 117.6-18.63 113.69-19.04ZM139.08-4.86L138.76-4.86Q138.34-4.86 138.14-5.27 137.93-5.69 137.93-6.45L137.93-6.45Q137.93-6.57 137.93-6.73 137.93-6.88 137.98-7.35L137.98-7.35Q138.05-9.11 139.71-9.4L139.71-9.4 140.27-9.45Q140.83-9.52 141.15-9.8 141.47-10.08 141.62-10.6L141.62-10.6Q142.03-11.99 142.45-13.4 142.86-14.82 143.32-16.21L143.32-16.21Q143.57-16.99 143.83-17.88 144.08-18.77 144.39-19.65 144.69-20.53 145.09-21.39 145.5-22.24 146.01-22.95L146.01-22.95Q146.23-23.24 146.62-23.56 147.01-23.88 147.51-24.13 148.01-24.39 148.59-24.55 149.16-24.71 149.72-24.71L149.72-24.71Q150.45-24.71 151.16-24.24L151.16-24.24Q152.11-23.58 153.04-22.66 153.97-21.73 155.12-20.29 156.26-18.85 157.78-16.81 159.29-14.77 161.42-11.89L161.42-11.89Q161.73-11.52 162.09-11.34 162.44-11.16 162.93-11.16L162.93-11.16 164.32-11.16Q165.18-11.16 165.65-10.75 166.13-10.35 166.13-9.64L166.13-9.64Q166.13-9.5 166.12-9.3 166.1-9.11 166.03-8.91L166.03-8.91 165.57-7.54Q165.52-7.35 165.49-7.2 165.47-7.06 165.47-6.91L165.47-6.91Q165.47-6.4 165.81-5.86L165.81-5.86 168.42-2.29Q168.86-1.64 168.86-1.05L168.86-1.05Q168.86-0.17 167.86 0.49L167.86 0.49 166.93 1.15Q166.59 1.37 166.29 1.49 165.98 1.61 165.66 1.61L165.66 1.61Q165.22 1.61 164.85 1.35 164.47 1.1 164.13 0.66L164.13 0.66Q162.95-1 161.77-2.61 160.59-4.22 159.37-5.81L159.37-5.81Q158.8-6.59 157.88-6.59L157.88-6.59Q154.9-6.47 151.98-6.26 149.06-6.05 146.13-5.76L146.13-5.76Q145.08-5.66 144.81-4.64L144.81-4.64 143.72-0.61Q143.28 1 141.76 1L141.76 1 141.37 1 140.62 0.9Q139.78 0.83 139.36 0.39 138.93-0.05 138.93-0.76L138.93-0.76Q138.93-0.9 138.95-1.07 138.98-1.25 139.03-1.44L139.03-1.44Q139.15-1.93 139.28-2.44 139.42-2.95 139.57-3.44L139.57-3.44Q139.61-3.64 139.64-3.8 139.66-3.96 139.66-4.1L139.66-4.1Q139.66-4.86 139.08-4.86L139.08-4.86ZM150.38-17.75L150.38-17.75Q150.14-17.97 149.94-18.12 149.75-18.26 149.53-18.26L149.53-18.26Q148.92-18.26 148.67-17.41L148.67-17.41Q148.18-15.97 147.73-14.56 147.28-13.16 146.82-11.69L146.82-11.69Q146.77-11.57 146.77-11.47 146.77-11.38 146.77-11.25L146.77-11.25Q146.77-10.35 147.72-10.35L147.72-10.35 147.96-10.35Q149.43-10.55 150.89-10.66 152.36-10.77 153.82-10.84L153.82-10.84Q154.31-10.89 154.59-11.1 154.87-11.3 154.87-11.65L154.87-11.65Q154.87-11.96 154.58-12.4L154.58-12.4Q153.55-13.77 152.52-15.1 151.48-16.43 150.38-17.75ZM175.67-18.51L175.67-18.51Q175.18-18.31 174.72-18.31L174.72-18.31Q173.55-18.31 173.11-19.7L173.11-19.7Q172.99-20.07 172.95-20.31 172.91-20.56 172.91-20.75L172.91-20.75Q172.91-21.9 174.21-22.46L174.21-22.46Q176.77-23.49 179.43-24.12 182.09-24.76 184.8-24.76L184.8-24.76Q186.07-24.76 187.3-24.49 188.54-24.22 189.51-23.56 190.49-22.9 191.1-21.8 191.71-20.7 191.71-19.04L191.71-19.04Q191.71-17.87 191.24-16.8 190.76-15.72 189.98-14.75 189.2-13.77 188.2-12.89 187.19-12.01 186.14-11.28 185.09-10.55 184.07-9.95 183.04-9.35 182.21-8.91L182.21-8.91Q181.51-8.5 181.51-8.06L181.51-8.06Q181.51-7.54 182.26-7.25L182.26-7.25Q184.88-6.32 187.61-5.52 190.34-4.71 193.15-3.71L193.15-3.71Q194.47-3.22 194.47-2.2L194.47-2.2Q194.47-1.71 194.19-1.21 193.91-0.71 193.57-0.29L193.57-0.29Q192.86 0.76 191.81 0.76L191.81 0.76Q191.44 0.76 190.91 0.61L190.91 0.61Q189.32 0 187.5-0.66 185.68-1.32 183.79-1.97 181.9-2.61 180.07-3.21 178.23-3.81 176.67-4.3L176.67-4.3Q176.11-4.44 175.92-4.44L175.92-4.44Q175.72-4.44 175.61-4.36 175.5-4.27 175.5-4L175.5-4Q175.5-3.93 175.52-3.82 175.55-3.71 175.55-3.59L175.55-3.59Q175.62-3.22 175.73-2.62 175.84-2.03 175.95-1.39 176.06-0.76 176.13-0.18 176.21 0.39 176.21 0.76L176.21 0.76Q176.21 2.12 174.72 2.66L174.72 2.66 173.62 3Q173.38 3.08 173.18 3.11 172.99 3.15 172.77 3.15L172.77 3.15Q171.42 3.15 171.2 1.49L171.2 1.49Q170.62-2.95 169.7-7.28 168.79-11.6 167.61-15.89L167.61-15.89Q167.54-16.14 167.53-16.32 167.52-16.5 167.52-16.65L167.52-16.65Q167.52-17.94 168.91-18.41L168.91-18.41Q169.42-18.58 169.75-18.68 170.08-18.77 170.29-18.84 170.5-18.9 170.61-18.92 170.72-18.95 170.81-18.95L170.81-18.95Q172.13-18.95 172.52-17.46L172.52-17.46Q173.03-15.55 173.49-13.77 173.94-11.99 174.3-10.25L174.3-10.25Q174.5-9.4 175.01-9.4L175.01-9.4Q175.16-9.4 175.35-9.46 175.55-9.52 175.82-9.64L175.82-9.64Q176.6-10.06 177.71-10.67 178.82-11.28 180.03-12.02 181.24-12.77 182.42-13.6 183.61-14.43 184.55-15.26 185.49-16.09 186.07-16.89 186.66-17.7 186.66-18.41L186.66-18.41Q186.66-18.85 186.52-19.21 186.39-19.58 186.02-19.85 185.66-20.12 185.03-20.26 184.41-20.41 183.46-20.41L183.46-20.41Q182.53-20.41 181.52-20.25 180.51-20.09 179.5-19.82 178.5-19.56 177.53-19.21 176.55-18.87 175.67-18.51ZM196.81-6.01L196.81-6.01Q196.74-6.01 196.58-5.98 196.42-5.96 196.24-5.93 196.05-5.91 195.88-5.88 195.71-5.86 195.61-5.86L195.61-5.86Q194.93-5.86 194.42-6.43 193.91-7.01 193.91-7.96L193.91-7.96Q193.91-8.59 194.32-9.18 194.74-9.77 195.61-10.16L195.61-10.16Q195.88-10.28 196.04-10.44 196.2-10.6 196.2-10.89L196.2-10.89Q196.2-11.67 196.16-12.56 196.13-13.45 196.05-14.65L196.05-14.65Q196.03-14.89 195.9-15.11 195.76-15.33 195.6-15.61 195.44-15.89 195.32-16.24 195.2-16.58 195.2-17.09L195.2-17.09Q195.2-17.55 195.33-18.15 195.47-18.75 195.9-19.27 196.32-19.8 197.09-20.15 197.86-20.51 199.11-20.51L199.11-20.51Q199.62-20.51 199.96-20.41 200.3-20.31 200.56-20.18 200.82-20.04 201.02-19.95 201.23-19.85 201.45-19.85L201.45-19.85Q201.84-19.85 203.01-20 204.18-20.14 205.83-20.41 207.48-20.68 209.47-21.02 211.46-21.36 213.51-21.77 215.56-22.17 217.51-22.58 219.47-23 221.05-23.39L221.05-23.39Q221.54-23.51 221.91-23.51L221.91-23.51Q222.42-23.51 222.73-23.28 223.03-23.05 223.18-22.71 223.32-22.36 223.36-21.94 223.4-21.51 223.4-21.14L223.4-21.14Q223.4-20.51 222.97-19.96 222.54-19.41 221.57-19.09L221.57-19.09Q219.15-18.38 216.7-17.86 214.24-17.33 211.75-16.91 209.26-16.48 206.75-16.14 204.23-15.8 201.74-15.45L201.74-15.45Q201.4-15.41 201.23-15.2 201.06-14.99 201.06-14.65L201.06-14.65 201.06-13.65Q201.06-13.23 201.08-12.79 201.11-12.35 201.19-11.99 201.28-11.62 201.43-11.39 201.57-11.16 201.82-11.16L201.82-11.16Q202.4-11.16 203.63-11.4 204.87-11.65 206.42-12 207.97-12.35 209.67-12.78 211.36-13.21 212.88-13.56 214.39-13.92 215.54-14.16 216.68-14.4 217.15-14.4L217.15-14.4Q217.83-14.4 218.19-13.9 218.54-13.4 218.66-12.65L218.66-12.65Q218.66-12.52 218.69-12.43 218.71-12.33 218.71-12.21L218.71-12.21Q218.71-11.5 218.28-10.9 217.86-10.3 216.76-10.01L216.76-10.01Q216.46-9.91 215.59-9.7 214.71-9.5 213.51-9.22 212.31-8.94 210.92-8.62 209.53-8.3 208.19-8 206.85-7.69 205.69-7.41 204.53-7.13 203.79-6.96L203.79-6.96Q203.13-6.79 203-6.69 202.87-6.59 202.87-6.45L202.87-6.45Q202.91-5.91 203.42-5.44 203.92-4.98 204.68-4.59 205.45-4.2 206.42-3.88 207.38-3.56 208.42-3.36 209.46-3.15 210.46-3.03 211.46-2.91 212.31-2.91L212.31-2.91Q212.68-2.91 213.36-2.91 214.05-2.91 214.87-2.94 215.68-2.98 216.55-3.05 217.42-3.13 218.11-3.26 218.81-3.39 219.26-3.6 219.71-3.81 219.71-4.1L219.71-4.1Q219.71-4.37 219.53-4.66 219.35-4.96 219.35-5.3L219.35-5.3Q219.35-5.79 219.61-6.26 219.88-6.74 220.31-7.12 220.74-7.5 221.29-7.73 221.84-7.96 222.4-7.96L222.4-7.96Q223.11-7.96 223.69-7.68 224.28-7.4 224.7-6.95 225.13-6.49 225.36-5.91 225.6-5.32 225.6-4.71L225.6-4.71Q225.6-3.1 224.41-1.93 223.23-0.76 221.32 0.01 219.42 0.78 217.03 1.16 214.63 1.54 212.22 1.54L212.22 1.54Q209.38 1.54 207.04 1.16 204.7 0.78 202.84-0.05 200.99-0.88 199.64-2.21 198.3-3.54 197.45-5.44L197.45-5.44Q197.15-6.01 196.81-6.01Z" opacity="1" transform="matrix(1,0,0,1,0,0)" fill="#0e376f" class="wordmark-text-0" data-fill-palette-color="primary" id="text-0"></path></svg></g></svg></g></svg></g></svg></g><g><svg viewBox="0 0 236.8198335577462 236.8198335577462" height="236.8198335577462" width="236.8198335577462"><g><svg></svg></g><g id="icon-0"><svg viewBox="0 0 236.8198335577462 236.8198335577462" height="236.8198335577462" width="236.8198335577462"><g><path d="M0 118.41c0-65.396 53.014-118.41 118.41-118.41 65.396 0 118.41 53.014 118.41 118.41 0 65.396-53.014 118.41-118.41 118.41-65.396 0-118.41-53.014-118.41-118.41zM118.41 232.307c62.904 0 113.897-50.993 113.897-113.897 0-62.904-50.993-113.897-113.897-113.897-62.904 0-113.897 50.993-113.897 113.897 0 62.904 50.993 113.897 113.897 113.897z" data-fill-palette-color="accent" fill="#0e376f" stroke="transparent"></path></g><g transform="matrix(1,0,0,1,53.849400874861914,55.069967442625256)"><svg viewBox="0 0 129.12103180802237 126.67989867249568" height="126.67989867249568" width="129.12103180802237"><g><svg xmlns="http://www.w3.org/2000/svg" data-name="Layer 1" viewBox="9.99934649590362 14.651 492.00065350409636 482.699" x="0" y="0" height="126.67989867249568" width="129.12103180802237" class="icon-dxe-0" data-fill-palette-color="accent" id="dxe-0"><path d="M15.855 86.309v57.033a6 6 0 0 0 6 6H158.49a6 6 0 0 0 6-6V86.309a12.19 12.19 0 0 0 5.856-10.448V47.233A12.01 12.01 0 0 0 158.49 35.1H123.5V22.741a8.01 8.01 0 0 0-7.812-8.09H62.705a8.01 8.01 0 0 0-7.81 8.09V35.1h-33.04A12.01 12.01 0 0 0 10 47.233v28.628a12.19 12.19 0 0 0 5.855 10.448m12 51.033V88h42.753a19.661 19.661 0 0 0 39.131 0h42.751v49.346ZM82.51 86.055v-11.01h15.327v11.01a7.664 7.664 0 0 1-15.327 0M66.9 26.65h44.6v8.45H66.9ZM22 47.233a0.4 0.4 0 0 1 0.021-0.134h136.3a0.4 0.4 0 0 1 0.021 0.134v28.628a0.4 0.4 0 0 1-0.021 0.135h-48.484v-6.951a6 6 0 0 0-6-6H76.51a6 6 0 0 0-6 6V76H22.021a0.4 0.4 0 0 1-0.021-0.139ZM134.83 190.864a32.16 32.16 0 1 0-32.16 32.16 32.2 32.2 0 0 0 32.16-32.16m-52.32 0a20.16 20.16 0 1 1 20.16 20.16 20.183 20.183 0 0 1-20.16-20.16" fill="#0e376f" data-fill-palette-color="accent"></path><path d="M111.809 190.864A9.14 9.14 0 1 0 102.67 200a9.15 9.15 0 0 0 9.139-9.136m-12 0a2.861 2.861 0 1 1 2.861 2.861 2.864 2.864 0 0 1-2.861-2.861M164.346 193.725a6 6 0 0 0 0-12h-15.74a6 6 0 0 0 0 12ZM195.755 193.725a6 6 0 0 0 0-12h-10.306a6 6 0 0 0 0 12ZM233.463 181.725h-13.607a6 6 0 0 0 0 12h13.607a49.378 49.378 0 1 1 0 98.755h-72.929a63.865 63.865 0 0 0 0 127.729H195a6 6 0 1 0 0-12h-34.466a51.865 51.865 0 0 1 0-103.729h72.929a61.378 61.378 0 1 0 0-122.755M229.247 420.209a6 6 0 0 0 0-12h-9.391a6 6 0 0 0 0 12ZM259.326 420.209a6 6 0 0 0 0-12H248.58a6 6 0 1 0 0 12ZM288.835 408.209h-10.747a6 6 0 0 0 0 12h10.747a6 6 0 0 0 0-12" fill="#0e376f" data-fill-palette-color="accent"></path><path d="M472.846 381.722h-52.53l-9.009-45.051A15.306 15.306 0 0 0 396.34 324.4h-10.932a10.643 10.643 0 0 0-10.631 10.631v46.689h-27.33L311.9 361.255a11.316 11.316 0 0 0-18.625 8.639 6 6 0 0 0 0.358 2.04l14.082 38.945-14.084 39.068a6 6 0 0 0-0.356 2.035 11.312 11.312 0 0 0 18.632 8.632l35.548-20.584h27.322v46.689a10.643 10.643 0 0 0 10.631 10.631h10.929a15.31 15.31 0 0 0 14.97-12.272l9.009-45.048h52.53a29.154 29.154 0 0 0 0-58.308m0 46.308H415.4a6 6 0 0 0-5.883 4.824l-9.975 49.871a3.27 3.27 0 0 1-3.2 2.625h-9.56v-45.32h7.893a6 6 0 1 0 0-12h-48.831a6 6 0 0 0-3.007 0.808l-36.448 21.1 13.349-37.032a6 6 0 0 0 0-4.075l-13.343-36.905 36.457 20.991a6 6 0 0 0 2.994 0.8h48.824a6 6 0 1 0 0-12h-7.893V336.4h9.563a3.27 3.27 0 0 1 3.2 2.623l9.975 49.874a6 6 0 0 0 5.883 4.823h57.449a17.154 17.154 0 0 1 0 34.308Z" fill="#0e376f" data-fill-palette-color="accent"></path><path d="M451.79 402.249a7.389 7.389 0 1 0 7.389 7.389 7.4 7.4 0 0 0-7.389-7.389M424.005 402.249a7.389 7.389 0 1 0 7.39 7.389 7.4 7.4 0 0 0-7.39-7.389M396.22 402.249a7.389 7.389 0 1 0 7.389 7.389 7.4 7.4 0 0 0-7.389-7.389M368.436 402.249a7.389 7.389 0 1 0 7.388 7.389 7.4 7.4 0 0 0-7.388-7.389" fill="#0e376f" data-fill-palette-color="accent"></path></svg></g></svg></g></svg></g></svg></g></svg></g><defs></defs></svg><rect width="395.52" height="142.79222330156512" fill="none" stroke="none" visibility="hidden"></rect></g></svg></g></svg>