<svg xmlns="http://www.w3.org/2000/svg" version="1.1" xmlns:xlink="http://www.w3.org/1999/xlink" xmlns:svgjs="http://svgjs.dev/svgjs" width="1500" height="924" viewBox="0 0 1500 924"><g transform="matrix(1,0,0,1,-0.9090909090909918,-0.5989201425713873)"><svg viewBox="0 0 396 244" data-background-color="#f9fbff" preserveAspectRatio="xMidYMid meet" height="924" width="1500" xmlns="http://www.w3.org/2000/svg" xmlns:xlink="http://www.w3.org/1999/xlink"><g id="tight-bounds" transform="matrix(1,0,0,1,0.2400000000000091,0.652324324526333)"><svg viewBox="0 0 395.52 243.18930423390302" height="243.18930423390302" width="395.52"><g><svg viewBox="0 0 395.52 243.18930423390302" height="243.18930423390302" width="395.52"><g transform="matrix(1,0,0,1,0,147.55940217107795)"><svg viewBox="0 0 395.52 95.62990206282507" height="95.62990206282507" width="395.52"><g id="textblocktransform"><svg viewBox="0 0 395.52 95.62990206282507" height="95.62990206282507" width="395.52" id="textblock"><g><svg viewBox="0 0 395.52 65.22847523786288" height="65.22847523786288" width="395.52"><g transform="matrix(1,0,0,1,0,0)"><svg width="395.52" viewBox="-0.35 -32.4 204.94 33.8" height="65.22847523786288" data-palette-color="#0e376f"><path d="M12.55 0.85Q11.85-1.65 9.33-10.15 6.8-18.65 4.2-26.8L4.2-26.8Q3.75-28.25 2.65-28.93 1.55-29.6-0.3-29.65L-0.3-29.65-0.35-29.85-0.05-32Q0.6-32 2.3-31.93 4-31.85 5.6-31.85L5.6-31.85Q7.8-31.85 10-32.08 12.2-32.3 12.85-32.4L12.85-32.4 13-32.05 12.8-30.1Q10.25-29.9 9.38-29.5 8.5-29.1 8.5-28.05L8.5-28.05Q8.5-27.2 9.88-22.03 11.25-16.85 12.73-11.65 14.2-6.45 14.65-4.85L14.65-4.85 14.95-4.85 22-24.05 21.1-26.8Q20.6-28.25 19.55-28.9 18.5-29.55 16.6-29.65L16.6-29.65 16.5-29.85 16.85-32Q17.5-32 19.2-31.93 20.9-31.85 22.5-31.85L22.5-31.85Q24.4-31.85 26.73-32.08 29.05-32.3 29.75-32.4L29.75-32.4 29.9-32.05 29.7-30.1Q27.1-29.9 26.23-29.5 25.35-29.1 25.35-28L25.35-28Q25.35-26.95 27.95-17.6 30.55-8.25 31.55-4.85L31.55-4.85 31.85-4.85Q31.95-5.15 32.08-5.48 32.2-5.8 32.35-6.25L32.35-6.25Q39.95-26.65 39.95-28.1L39.95-28.1Q39.95-29.05 39.15-29.45 38.35-29.85 36.55-29.85L36.55-29.85 34.05-29.85 33.95-30.05 34.3-32.2Q34.95-32.15 37.1-32 39.25-31.85 41.25-31.85L41.25-31.85Q43.05-31.85 44.55-31.9 46.05-31.95 46.55-32L46.55-32 46.2-29.65Q44.7-29.55 44.1-29.13 43.5-28.7 43-27.25L43-27.25 32.5-0.25 29.4 0.85Q28.9-0.9 27.08-7.2 25.25-13.5 23.15-20.35L23.15-20.35 22.85-20.35 15.75-0.25 12.55 0.85ZM58.7 0.35L58.55 0.1 58.7-1.7Q60.8-1.85 61.52-2.15 62.25-2.45 62.25-3.15L62.25-3.15Q62.25-3.95 61.9-4.85L61.9-4.85 60.7-8.7Q59.7-8.75 56.55-8.75L56.55-8.75Q55.1-8.75 52.25-8.45L52.25-8.45 50.85-4.75Q50.5-3.6 50.5-3.35L50.5-3.35Q50.5-2.55 51.05-2.2 51.6-1.85 52.85-1.85L52.85-1.85 55-1.85 55.15-1.65 54.85 0.25Q54.35 0.2 52.57 0.1 50.8 0 49.1 0L49.1 0Q47.5 0 46.22 0.05 44.95 0.1 44.5 0.1L44.5 0.1 44.8-1.95Q45.9-2.1 46.55-2.73 47.2-3.35 47.85-4.85L47.85-4.85 55.7-24.7 59.25-25.35 59.6-25.3Q59.6-25.1 61.87-17.4 64.15-9.7 65.95-4.65L65.95-4.65Q66.45-3.2 67.22-2.63 68-2.05 69.7-1.9L69.7-1.9 69.8-1.7 69.55 0.1Q69.05 0.1 67.7 0.05 66.35 0 65 0L65 0Q62.95 0 61.1 0.15 59.25 0.3 58.7 0.35L58.7 0.35ZM53.05-10.8L56.45-10.8Q58.2-10.8 60.1-11L60.1-11 57.05-20.7 56.7-20.7 53.05-10.8ZM93.09-6.8L93.05-21.25Q93.05-22.9 91.7-22.9L91.7-22.9 90.2-22.9 90.09-23.1 90.45-25.05Q90.9-25 92.15-24.95 93.4-24.9 94.7-24.9L94.7-24.9Q95.8-24.9 97.17-25.03 98.55-25.15 98.95-25.2L98.95-25.2 98.75-23.15Q97.3-22.95 96.67-22.38 96.05-21.8 96-20.65L96-20.65 95.4 0.85 93.45 1.4Q88.7-5.55 83.84-12.2 79-18.85 79-18.75L79-18.75 78.75-18.75 78.59-3.6Q78.59-2.65 78.9-2.3 79.2-1.95 79.9-1.95L79.9-1.95 81.9-2 82.05-1.85 81.65 0.15Q81.2 0.1 79.87 0.05 78.55 0 77.09 0L77.09 0Q75.95 0 74.65 0.13 73.34 0.25 72.95 0.3L72.95 0.3 73.2-1.75Q74.45-1.9 75.05-2.48 75.65-3.05 75.7-4.2L75.7-4.2 76.25-20.7Q76.25-21.95 75.52-22.43 74.8-22.9 72.75-23.15L72.75-23.15 72.55-23.4 72.9-25.1Q73.3-25.05 74.42-24.98 75.55-24.9 76.7-24.9L76.7-24.9Q77.8-24.9 78.65-24.95 79.5-25 79.75-25.05L79.75-25.05Q83.8-19.1 88.32-12.9 92.84-6.7 92.84-6.8L92.84-6.8 93.09-6.8ZM114.24 0.45Q113.59 0.35 111.62 0.18 109.64 0 108.29 0L108.29 0Q106.99 0 105.44 0.18 103.89 0.35 103.44 0.45L103.44 0.45 103.69-1.65Q105.49-1.95 106.14-2.65 106.79-3.35 106.79-4.95L106.79-4.95 106.84-20.85Q106.84-22.1 106.54-22.53 106.24-22.95 105.39-22.95L105.39-22.95Q104.94-22.95 104.54-22.9 104.14-22.85 103.99-22.85L103.99-22.85 103.89-23.1 104.19-25Q104.69-25 106.02-24.95 107.34-24.9 108.69-24.9L108.69-24.9Q110.49-24.9 112.39-24.98 114.29-25.05 114.99-25.05L114.99-25.05Q118.99-25.05 122.04-23.6 125.09-22.15 126.77-19.53 128.44-16.9 128.44-13.4L128.44-13.4Q128.44-9.5 126.57-6.35 124.69-3.2 121.44-1.38 118.19 0.45 114.24 0.45L114.24 0.45ZM112.34-22.7Q111.54-22.7 111.27-22.53 110.99-22.35 110.94-21.8L110.94-21.8Q110.34-7.75 110.34-5.3L110.34-5.3Q110.34-3.95 110.74-3.23 111.14-2.5 112.14-2.23 113.14-1.95 115.09-1.95L115.09-1.95Q119.29-1.95 121.67-4.7 124.04-7.45 124.04-12.4L124.04-12.4Q124.04-17.45 121.04-20.08 118.04-22.7 112.34-22.7L112.34-22.7ZM144.19 0.35L144.04 0.1 144.19-1.7Q146.29-1.85 147.02-2.15 147.74-2.45 147.74-3.15L147.74-3.15Q147.74-3.95 147.39-4.85L147.39-4.85 146.19-8.7Q145.19-8.75 142.04-8.75L142.04-8.75Q140.59-8.75 137.74-8.45L137.74-8.45 136.34-4.75Q135.99-3.6 135.99-3.35L135.99-3.35Q135.99-2.55 136.54-2.2 137.09-1.85 138.34-1.85L138.34-1.85 140.49-1.85 140.64-1.65 140.34 0.25Q139.84 0.2 138.06 0.1 136.29 0 134.59 0L134.59 0Q132.99 0 131.72 0.05 130.44 0.1 129.99 0.1L129.99 0.1 130.29-1.95Q131.39-2.1 132.04-2.73 132.69-3.35 133.34-4.85L133.34-4.85 141.19-24.7 144.74-25.35 145.09-25.3Q145.09-25.1 147.37-17.4 149.64-9.7 151.44-4.65L151.44-4.65Q151.94-3.2 152.72-2.63 153.49-2.05 155.19-1.9L155.19-1.9 155.29-1.7 155.04 0.1Q154.54 0.1 153.19 0.05 151.84 0 150.49 0L150.49 0Q148.44 0 146.59 0.15 144.74 0.3 144.19 0.35L144.19 0.35ZM138.54-10.8L141.94-10.8Q143.69-10.8 145.59-11L145.59-11 142.54-20.7 142.19-20.7 138.54-10.8ZM177.04 0.6Q175.94 0.6 174.79-0.38 173.64-1.35 172.69-3.05L172.69-3.05 168.49-10.4 165.24-10.4 165.14-5.05Q165.14-3.6 165.34-2.98 165.54-2.35 166.11-2.15 166.69-1.95 168.09-1.9L168.09-1.9 168.19-1.75 167.79 0.15Q167.19 0.1 165.61 0.08 164.04 0.05 162.44 0.05L162.44 0.05Q160.89 0.05 159.74 0.1 158.59 0.15 158.19 0.2L158.19 0.2 158.54-1.85Q160.39-2.1 160.99-2.7 161.59-3.3 161.59-4.95L161.59-4.95 161.64-20.9Q161.64-22.1 161.34-22.53 161.04-22.95 160.19-22.95L160.19-22.95 158.79-22.9 158.64-23.1 158.94-25Q159.44-25 160.84-24.95 162.24-24.9 163.64-24.9L163.64-24.9Q165.09-24.9 166.74-24.98 168.39-25.05 168.99-25.05L168.99-25.05Q173.04-25.05 175.34-23.38 177.64-21.7 177.64-18.75L177.64-18.75Q177.64-16.45 176.09-14.5 174.54-12.55 171.74-11.3L171.74-11.3 175.99-4.9Q177.19-3.1 178.29-2.35 179.39-1.6 180.94-1.6L180.94-1.6 181.14-1.35 180.89 0.2 177.04 0.6ZM169.39-12.6Q170.34-13 171.06-13.38 171.79-13.75 172.69-14.95 173.59-16.15 173.59-18.05L173.59-18.05Q173.59-22.9 166.44-22.9L166.44-22.9Q166.04-22.9 165.89-22.73 165.74-22.55 165.74-22L165.74-22Q165.34-15.9 165.34-13L165.34-13 169.39-12.6ZM184.63 0.4L184.88-1.7Q186.74-1.9 187.38-2.6 188.03-3.3 188.03-5L188.03-5 188.09-20.85Q188.09-22.1 187.78-22.53 187.49-22.95 186.59-22.95L186.59-22.95 185.24-22.9 185.13-23.1 185.44-25Q186.03-25 187.78-24.95 189.53-24.9 191.59-24.9L191.59-24.9Q199.94-24.9 203.94-25.35L203.94-25.35 204.09-25.1Q203.99-24.55 203.63-22.6 203.28-20.65 203.13-18.4L203.13-18.4 200.74-18.2Q200.74-18.4 200.78-18.88 200.84-19.35 200.84-19.85L200.84-19.85Q200.84-21.15 200.46-21.68 200.09-22.2 198.91-22.38 197.74-22.55 194.84-22.55L194.84-22.55Q193.49-22.55 192.99-22.48 192.49-22.4 192.34-22.13 192.19-21.85 192.13-21.1L192.13-21.1 191.84-14 195.94-13.95Q196.84-13.95 198.59-14.13 200.34-14.3 200.88-14.35L200.88-14.35 201.09-14.1 200.49-11.5Q199.94-11.5 198.31-11.55 196.69-11.6 194.88-11.6L194.88-11.6Q193.49-11.6 191.74-11.35L191.74-11.35Q191.59-7.55 191.59-4.5L191.59-4.5Q191.59-3.35 191.76-2.9 191.94-2.45 192.56-2.3 193.19-2.15 194.63-2.15L194.63-2.15Q197.88-2.15 199.28-2.45 200.69-2.75 201.26-3.68 201.84-4.6 202.19-6.85L202.19-6.85 204.38-7.05 204.59-6.8Q204.44-6.25 204.06-4.23 203.69-2.2 203.49 0L203.49 0 203.19 0.25Q201.84 0.2 197.59 0.1 193.34 0 190.69 0L190.69 0Q188.63 0 186.88 0.18 185.13 0.35 184.63 0.4L184.63 0.4Z" opacity="1" transform="matrix(1,0,0,1,0,0)" fill="#0e376f" class="wordmark-text-0" data-fill-palette-color="primary" id="text-0"></path></svg></g></svg></g><g transform="matrix(1,0,0,1,0,80.6273527581166)"><svg viewBox="0 0 395.52 15.002549304708463" height="15.002549304708463" width="395.52"><g transform="matrix(1,0,0,1,0,0)"><svg width="395.52" viewBox="1.6 -35.75 950.4 36.05" height="15.002549304708463" data-palette-color="#0e376f"><path d="M26.9-31.65L25.2-28.85Q24.45-29.7 23.45-30.38 22.45-31.05 21.2-31.55 19.95-32.05 18.53-32.35 17.1-32.65 15.5-32.65L15.5-32.65Q10.85-32.65 8.68-30.88 6.5-29.1 6.5-26.05L6.5-26.05Q6.5-23.95 7.53-22.75 8.55-21.55 10.75-20.8 12.95-20.05 16.35-19.25L16.35-19.25Q20.15-18.45 22.9-17.35 25.65-16.25 27.15-14.38 28.65-12.5 28.65-9.3L28.65-9.3Q28.65-6.85 27.7-5.05 26.75-3.25 25.05-2.05 23.35-0.85 21-0.28 18.65 0.3 15.85 0.3L15.85 0.3Q13.1 0.3 10.58-0.28 8.05-0.85 5.8-1.98 3.55-3.1 1.6-4.85L1.6-4.85 3.35-7.7Q4.3-6.7 5.63-5.83 6.95-4.95 8.58-4.25 10.2-3.55 12.08-3.18 13.95-2.8 15.95-2.8L15.95-2.8Q20.2-2.8 22.58-4.35 24.95-5.9 24.95-8.95L24.95-8.95Q24.95-11.15 23.75-12.48 22.55-13.8 20.15-14.65 17.75-15.5 14.25-16.3L14.25-16.3Q10.55-17.15 8-18.2 5.45-19.25 4.17-20.98 2.9-22.7 2.9-25.55L2.9-25.55Q2.9-28.85 4.53-31.13 6.15-33.4 9-34.58 11.85-35.75 15.55-35.75L15.55-35.75Q17.9-35.75 19.93-35.27 21.95-34.8 23.68-33.9 25.4-33 26.9-31.65L26.9-31.65ZM92.16-35.5L95.61-35.5 95.61 0 92.16 0 92.16-16.6 71.11-16.6 71.11 0 67.61 0 67.61-35.5 71.11-35.5 71.11-19.7 92.16-19.7 92.16-35.5ZM133.46 0L148.31-35.5 151.26-35.5 166.01 0 162.31 0 157.71-11.1 141.76-11.1 137.21 0 133.46 0ZM142.51-13.85L156.91-13.85 149.76-31.4 142.51-13.85ZM207.42 0L203.92 0 203.92-35.5 218.92-35.5Q221.22-35.5 223.12-34.55 225.02-33.6 226.45-31.98 227.87-30.35 228.65-28.38 229.42-26.4 229.42-24.35L229.42-24.35Q229.42-21.8 228.45-19.55 227.47-17.3 225.7-15.75 223.92-14.2 221.52-13.7L221.52-13.7 230.22 0 226.27 0 217.92-13.1 207.42-13.1 207.42 0ZM207.42-32.4L207.42-16.2 219.02-16.2Q221.12-16.2 222.67-17.35 224.22-18.5 225.07-20.38 225.92-22.25 225.92-24.35L225.92-24.35Q225.92-26.5 224.95-28.33 223.97-30.15 222.35-31.28 220.72-32.4 218.72-32.4L218.72-32.4 207.42-32.4ZM272.88-3.1L293.23-3.1 293.23 0 269.38 0 269.38-35.5 292.78-35.5 292.78-32.4 272.88-32.4 272.88-19.6 290.23-19.6 290.23-16.65 272.88-16.65 272.88-3.1ZM372.79-35.5L376.64-35.5 388.24-16.4 399.94-35.5 403.74-35.5 389.99-13.2 389.99 0 386.49 0 386.49-13.3 372.79-35.5ZM453.75 0.25L453.75 0.25Q450 0.25 446.95-1.25 443.9-2.75 441.7-5.33 439.5-7.9 438.3-11.13 437.1-14.35 437.1-17.75L437.1-17.75Q437.1-21.3 438.35-24.53 439.6-27.75 441.87-30.28 444.15-32.8 447.2-34.27 450.25-35.75 453.8-35.75L453.8-35.75Q457.55-35.75 460.6-34.2 463.65-32.65 465.82-30.05 468-27.45 469.2-24.25 470.4-21.05 470.4-17.7L470.4-17.7Q470.4-14.15 469.15-10.93 467.9-7.7 465.65-5.18 463.4-2.65 460.35-1.2 457.3 0.25 453.75 0.25ZM440.6-17.75L440.6-17.75Q440.6-14.85 441.55-12.18 442.5-9.5 444.25-7.43 446-5.35 448.42-4.13 450.85-2.9 453.75-2.9L453.75-2.9Q456.8-2.9 459.22-4.17 461.65-5.45 463.37-7.58 465.1-9.7 466-12.35 466.9-15 466.9-17.75L466.9-17.75Q466.9-20.65 465.95-23.3 465-25.95 463.22-28.05 461.45-30.15 459.05-31.35 456.65-32.55 453.75-32.55L453.75-32.55Q450.75-32.55 448.32-31.3 445.9-30.05 444.17-27.93 442.45-25.8 441.52-23.15 440.6-20.5 440.6-17.75ZM524.26 0.25L524.26 0.25Q520.06 0.25 517.16-1.25 514.26-2.75 512.56-5.28 510.86-7.8 510.08-11 509.31-14.2 509.31-17.6L509.31-17.6 509.31-35.5 512.76-35.5 512.76-17.6Q512.76-14.85 513.33-12.2 513.91-9.55 515.21-7.45 516.51-5.35 518.71-4.13 520.91-2.9 524.21-2.9L524.21-2.9Q527.61-2.9 529.83-4.17 532.06-5.45 533.33-7.55 534.61-9.65 535.16-12.28 535.71-14.9 535.71-17.6L535.71-17.6 535.71-35.5 539.21-35.5 539.21-17.6Q539.21-14.05 538.41-10.8 537.61-7.55 535.83-5.1 534.06-2.65 531.21-1.2 528.36 0.25 524.26 0.25ZM583.86 0L580.36 0 580.36-35.5 595.36-35.5Q597.66-35.5 599.56-34.55 601.46-33.6 602.89-31.98 604.31-30.35 605.09-28.38 605.86-26.4 605.86-24.35L605.86-24.35Q605.86-21.8 604.89-19.55 603.91-17.3 602.14-15.75 600.36-14.2 597.96-13.7L597.96-13.7 606.66 0 602.71 0 594.36-13.1 583.86-13.1 583.86 0ZM583.86-32.4L583.86-16.2 595.46-16.2Q597.56-16.2 599.11-17.35 600.66-18.5 601.51-20.38 602.36-22.25 602.36-24.35L602.36-24.35Q602.36-26.5 601.39-28.33 600.41-30.15 598.79-31.28 597.16-32.4 595.16-32.4L595.16-32.4 583.86-32.4ZM715.13-35.5L715.13-32.4 702.48-32.4 702.48 0 698.98 0 698.98-32.4 686.33-32.4 686.33-35.5 715.13-35.5ZM756.73 0L753.23 0 753.23-35.5 768.23-35.5Q770.53-35.5 772.43-34.55 774.33-33.6 775.76-31.98 777.18-30.35 777.96-28.38 778.73-26.4 778.73-24.35L778.73-24.35Q778.73-21.8 777.76-19.55 776.78-17.3 775.01-15.75 773.23-14.2 770.83-13.7L770.83-13.7 779.53 0 775.58 0 767.23-13.1 756.73-13.1 756.73 0ZM756.73-32.4L756.73-16.2 768.33-16.2Q770.43-16.2 771.98-17.35 773.53-18.5 774.38-20.38 775.23-22.25 775.23-24.35L775.23-24.35Q775.23-26.5 774.26-28.33 773.28-30.15 771.66-31.28 770.03-32.4 768.03-32.4L768.03-32.4 756.73-32.4ZM822.19 0L818.69 0 818.69-35.5 822.19-35.5 822.19 0ZM867.4 0L863.9 0 863.9-35.5 878.6-35.5Q880.9-35.5 882.82-34.55 884.75-33.6 886.15-31.98 887.55-30.35 888.35-28.38 889.15-26.4 889.15-24.35L889.15-24.35Q889.15-21.45 887.87-18.88 886.6-16.3 884.3-14.7 882-13.1 878.9-13.1L878.9-13.1 867.4-13.1 867.4 0ZM867.4-32.4L867.4-16.2 878.75-16.2Q880.85-16.2 882.4-17.35 883.95-18.5 884.8-20.35 885.65-22.2 885.65-24.35L885.65-24.35Q885.65-26.55 884.65-28.4 883.65-30.25 882.02-31.33 880.4-32.4 878.45-32.4L878.45-32.4 867.4-32.4ZM950.25-31.65L948.55-28.85Q947.8-29.7 946.8-30.38 945.8-31.05 944.55-31.55 943.3-32.05 941.88-32.35 940.45-32.65 938.85-32.65L938.85-32.65Q934.2-32.65 932.03-30.88 929.85-29.1 929.85-26.05L929.85-26.05Q929.85-23.95 930.88-22.75 931.9-21.55 934.1-20.8 936.3-20.05 939.7-19.25L939.7-19.25Q943.5-18.45 946.25-17.35 949-16.25 950.5-14.38 952-12.5 952-9.3L952-9.3Q952-6.85 951.05-5.05 950.1-3.25 948.4-2.05 946.7-0.85 944.35-0.28 942 0.3 939.2 0.3L939.2 0.3Q936.45 0.3 933.93-0.28 931.4-0.85 929.15-1.98 926.9-3.1 924.95-4.85L924.95-4.85 926.7-7.7Q927.65-6.7 928.98-5.83 930.3-4.95 931.93-4.25 933.55-3.55 935.43-3.18 937.3-2.8 939.3-2.8L939.3-2.8Q943.55-2.8 945.93-4.35 948.3-5.9 948.3-8.95L948.3-8.95Q948.3-11.15 947.1-12.48 945.9-13.8 943.5-14.65 941.1-15.5 937.6-16.3L937.6-16.3Q933.9-17.15 931.35-18.2 928.8-19.25 927.53-20.98 926.25-22.7 926.25-25.55L926.25-25.55Q926.25-28.85 927.88-31.13 929.5-33.4 932.35-34.58 935.2-35.75 938.9-35.75L938.9-35.75Q941.25-35.75 943.28-35.27 945.3-34.8 947.03-33.9 948.75-33 950.25-31.65L950.25-31.65Z" opacity="1" transform="matrix(1,0,0,1,0,0)" fill="#0e376f" class="slogan-text-1" data-fill-palette-color="secondary" id="text-1"></path></svg></g></svg></g></svg></g></svg></g><g transform="matrix(1,0,0,1,124.45684704842775,0)"><svg viewBox="0 0 146.6063059031445 132.16052465082424" height="132.16052465082424" width="146.6063059031445"><g><svg xmlns="http://www.w3.org/2000/svg" xml:space="preserve" viewBox="10.105563547144861 10.136479593860047 79.0527899615794 79.99352040613996" x="8" y="0" height="132.16052465082424" width="130.6063059031445" class="icon-icon-0" data-fill-palette-color="accent" id="icon-0"><path d="M68.1 19.297a13 13 0 0 0-9.846 1.857 13 13 0 0 0-5.648 8.274c-0.43 2.057-0.337 4.1 0.167 6.005l0.011 0.046c1.234 4.596 4.926 8.358 9.881 9.424l0.014 0.004q0.03 0.007 0.06 0.016c0.9 0.188 1.797 0.278 2.683 0.278 6.064 0 11.521-4.247 12.811-10.411a13 13 0 0 0-1.857-9.846 13.01 13.01 0 0 0-8.276-5.647m6.452 19.433l-3.73-0.78a14.8 14.8 0 0 0 1.453-3.487l3.967 0.83a11.2 11.2 0 0 1-1.69 3.437m-20.323-8.042l3.967 0.83a14.8 14.8 0 0 0-0.067 3.777l-3.731-0.781c-0.27-1.23-0.336-2.52-0.169-3.826m2.252-5.464l3.585 0.75a16.7 16.7 0 0 0-1.508 3.781l-3.963-0.829a11.2 11.2 0 0 1 1.886-3.702m14.406 7.11l-4.402-0.921 0.821-3.925 3.614 0.756c0.165 1.251 0.18 2.626-0.033 4.09m-6.673 9.933l0.774-3.699 2.77 0.58a17.2 17.2 0 0 1-3.544 3.119m1.142-5.461l0.76-3.632 4.395 0.919a13 13 0 0 1-1.566 3.463z m2.318-11.079l0.845-4.039a16.3 16.3 0 0 1 2.028 4.64z m-0.914-4.422l-0.848 4.053-2.872-0.601a16.4 16.4 0 0 1 3.72-3.452m-1.216 5.815l-0.821 3.925-4.409-0.922c0.39-1.428 0.96-2.678 1.613-3.759z m-5.598 4.764l4.409 0.922-0.76 3.632-3.59-0.751a12.9 12.9 0 0 1-0.059-3.803m3.28 6.315l-0.774 3.699a17 17 0 0 1-2.002-4.28z m6.535 1.368l3.431 0.718a11.32 11.32 0 0 1-7.397 3.097c1.217-0.862 2.683-2.116 3.966-3.815m2.888-6.865c0.223-1.447 0.247-2.81 0.132-4.069l3.588 0.75c0.336 1.346 0.424 2.746 0.243 4.147z m2.22-6.772c0.309 0.472 0.567 0.966 0.799 1.469l-3.165-0.662a18 18 0 0 0-1.573-4.483 11.24 11.24 0 0 1 3.939 3.676M59.24 22.66a11.2 11.2 0 0 1 5.065-1.785 18 18 0 0 0-3.225 3.472l-3.161-0.661c0.414-0.368 0.849-0.717 1.321-1.026m-4.22 13.823l3.433 0.718c0.494 2.072 1.335 3.809 2.105 5.086a11.32 11.32 0 0 1-5.538-5.804" fill="#0e376f" data-fill-palette-color="accent"></path><path d="M84.176 17.519l-35.19-7.361a1 1 0 0 0-1.184 0.773l-4.735 22.634-4.86-4.214a1 1 0 0 0-1.393 0.081l-0.752 0.821-1.747-1.599a0.999 0.999 0 0 0-1.413 0.062l-6.093 6.659a0.997 0.997 0 0 0 0.063 1.413l1.747 1.598-0.752 0.822a1 1 0 0 0 0.043 1.395l4.298 4.149-5.928 6.478-4.513-3.913a1 1 0 0 0-1.393 0.081l-0.752 0.822-1.747-1.599a0.999 0.999 0 0 0-1.413 0.062l-6.093 6.659a0.997 0.997 0 0 0 0.063 1.413l1.747 1.598-0.752 0.822a1 1 0 0 0 0.043 1.395l16.646 16.07a0.99 0.99 0 0 0 0.137 1.175l13 13.479a2.74 2.74 0 0 0 1.967 0.836l0.035-0.001a2.74 2.74 0 0 0 1.981-0.888l10.07-11.005a2.74 2.74 0 0 0 0.708-2.052 2.74 2.74 0 0 0-1.009-1.919l-2.753-2.22 19.655 4.112q0.649 0.136 1.296 0.135a6.23 6.23 0 0 0 3.417-1.023 6.23 6.23 0 0 0 2.703-3.96l9.701-46.373c0.342-1.639 0.026-3.312-0.89-4.713s-2.32-2.363-3.958-2.704M28.96 35.988l4.743-5.184 1.01 0.924-4.743 5.183z m8.673-4.488l16.671 14.458-8.427 9.209L30 39.841z m22.568 38.425a0.73 0.73 0 0 1-0.531 0.237c-0.192-0.019-0.395-0.076-0.537-0.224l-1.578-1.636 10.867-11.875 1.769 1.427a0.72 0.72 0 0 1 0.27 0.515 0.73 0.73 0 0 1-0.19 0.55z m-4.036-3.065l-9.379-9.724 9.56-10.447 10.517 8.482zM32.382 56.521l5.637-6.16 1.28 1.236c-0.002 0.008-0.008 0.014-0.009 0.021l-1.929 9.221z m1.266-10.38l2.933 2.831-5.709 6.238-3.079-2.67z m-21.127 7.813l4.743-5.184 1.01 0.924-4.743 5.183z m8.672-4.488l16.67 14.458-8.427 9.209-15.875-15.326z m18.713 15.188l10.517 8.481-10.697 11.69-9.379-9.724z m14.116 11.68a0.73 0.73 0 0 1-0.19 0.551L43.762 87.89a0.73 0.73 0 0 1-0.531 0.238c-0.197-0.023-0.395-0.078-0.537-0.225l-1.577-1.635 10.866-11.875 1.77 1.427a0.73 0.73 0 0 1 0.269 0.514M40.43 62.508a0.99 0.99 0 0 0-1.182-0.032l-0.167-0.145c0.007-0.024 0.022-0.043 0.027-0.067l1.888-9.028 3.561 3.437a0.99 0.99 0 0 0 0.137 1.175l12.772 13.244-8.568-1.792c-0.016-0.004-0.032 0.002-0.048 0z m46.638-37.985l-9.701 46.373a4.24 4.24 0 0 1-1.84 2.696 4.24 4.24 0 0 1-3.208 0.605L60.954 71.82c0.266-0.144 0.515-0.32 0.722-0.547l10.07-11.006c0.507-0.554 0.766-1.302 0.709-2.051s-0.425-1.449-1.009-1.92L56.87 44.542a0.99 0.99 0 0 0-1.183-0.032l-10.89-9.445 4.758-22.746 34.211 7.156a4.24 4.24 0 0 1 2.696 1.84c0.624 0.955 0.839 2.093 0.606 3.208" fill="#0e376f" data-fill-palette-color="accent"></path></svg></g></svg></g><g><rect width="124.45684704842775" height="5.8823712127369205" y="125.27815343808733" x="271.06315295157225" fill="#0e376f" data-fill-palette-color="accent"></rect><rect width="124.45684704842775" height="5.8823712127369205" y="125.27815343808733" x="0" fill="#0e376f" data-fill-palette-color="accent"></rect><rect width="124.45684704842775" height="5.8823712127369205" y="113.51341101261349" x="271.06315295157225" fill="#0e376f" data-fill-palette-color="accent"></rect><rect width="124.45684704842775" height="5.8823712127369205" y="113.51341101261349" x="0" fill="#0e376f" data-fill-palette-color="accent"></rect></g></svg></g><defs></defs></svg><rect width="395.52" height="243.18930423390302" fill="none" stroke="none" visibility="hidden"></rect></g></svg></g></svg>