<svg width="597" height="314" viewBox="0 0 597 314" fill="none" xmlns="http://www.w3.org/2000/svg">
<g clip-path="url(#clip0_2_117)">
<path d="M52.25 223.75C53.5098 223.75 54.718 224.25 55.6088 225.141C56.4996 226.032 57 227.24 57 228.5V285.5C57 286.76 56.4996 287.968 55.6088 288.859C54.718 289.75 53.5098 290.25 52.25 290.25H23.75C22.4902 290.25 21.282 289.75 20.3912 288.859C19.5004 287.968 19 286.76 19 285.5V228.5C19 227.24 19.5004 226.032 20.3912 225.141C21.282 224.25 22.4902 223.75 23.75 223.75H52.25ZM23.75 219C21.2304 219 18.8141 220.001 17.0325 221.782C15.2509 223.564 14.25 225.98 14.25 228.5V285.5C14.25 288.02 15.2509 290.436 17.0325 292.218C18.8141 293.999 21.2304 295 23.75 295H52.25C54.7696 295 57.1859 293.999 58.9675 292.218C60.7491 290.436 61.75 288.02 61.75 285.5V228.5C61.75 225.98 60.7491 223.564 58.9675 221.782C57.1859 220.001 54.7696 219 52.25 219H23.75Z" fill="#2B3237"/>
<path d="M38 285.5C39.2598 285.5 40.468 285 41.3588 284.109C42.2496 283.218 42.75 282.01 42.75 280.75C42.75 279.49 42.2496 278.282 41.3588 277.391C40.468 276.5 39.2598 276 38 276C36.7402 276 35.532 276.5 34.6412 277.391C33.7504 278.282 33.25 279.49 33.25 280.75C33.25 282.01 33.7504 283.218 34.6412 284.109C35.532 285 36.7402 285.5 38 285.5Z" fill="#2B3237"/>
</g>
<g clip-path="url(#clip1_2_117)">
<path d="M573.25 4.75C574.51 4.75 575.718 5.25044 576.609 6.14124C577.5 7.03204 578 8.24022 578 9.5V66.5C578 67.7598 577.5 68.968 576.609 69.8588C575.718 70.7496 574.51 71.25 573.25 71.25H544.75C543.49 71.25 542.282 70.7496 541.391 69.8588C540.5 68.968 540 67.7598 540 66.5V9.5C540 8.24022 540.5 7.03204 541.391 6.14124C542.282 5.25044 543.49 4.75 544.75 4.75H573.25ZM544.75 0C542.23 0 539.814 1.00089 538.032 2.78249C536.251 4.56408 535.25 6.98044 535.25 9.5V66.5C535.25 69.0196 536.251 71.4359 538.032 73.2175C539.814 74.9991 542.23 76 544.75 76H573.25C575.77 76 578.186 74.9991 579.968 73.2175C581.749 71.4359 582.75 69.0196 582.75 66.5V9.5C582.75 6.98044 581.749 4.56408 579.968 2.78249C578.186 1.00089 575.77 0 573.25 0L544.75 0Z" fill="#2B3237"/>
<path d="M559 66.5C560.26 66.5 561.468 65.9996 562.359 65.1088C563.25 64.218 563.75 63.0098 563.75 61.75C563.75 60.4902 563.25 59.282 562.359 58.3912C561.468 57.5004 560.26 57 559 57C557.74 57 556.532 57.5004 555.641 58.3912C554.75 59.282 554.25 60.4902 554.25 61.75C554.25 63.0098 554.75 64.218 555.641 65.1088C556.532 65.9996 557.74 66.5 559 66.5Z" fill="#2B3237"/>
</g>
<g clip-path="url(#clip2_2_117)">
<path d="M73.8672 249.388L76.873 253.954L75.8353 254.637C75.2299 255.036 74.4908 255.178 73.7809 255.031C73.0709 254.885 72.4481 254.463 72.0495 253.857C71.6509 253.252 71.5091 252.513 71.6554 251.803C71.8017 251.093 72.224 250.47 72.8295 250.072L73.8672 249.388ZM85.9155 246.216C87.0086 247.877 85.1642 250.281 83.5039 251.374C82.6738 251.92 81.5703 252.052 80.0518 252.457L78.5333 252.861L75.5275 248.295C76.3576 247.749 77.3296 246.514 79.405 245.148C81.4804 243.781 84.5481 244.139 85.9155 246.216Z" fill="#2B3237"/>
</g>
<g clip-path="url(#clip3_2_117)">
<path d="M111.891 217.751L116.585 220.552L115.948 221.619C115.577 222.242 114.973 222.691 114.271 222.869C113.568 223.046 112.823 222.937 112.201 222.566C111.578 222.194 111.129 221.591 110.951 220.888C110.774 220.185 110.883 219.441 111.254 218.818L111.891 217.751ZM121.355 209.649C123.062 210.667 122.449 213.635 121.43 215.342C120.921 216.195 119.985 216.794 118.794 217.82L117.604 218.845L112.909 216.044C113.419 215.191 113.756 213.656 115.029 211.522C116.302 209.388 119.22 208.375 121.355 209.649Z" fill="#2B3237"/>
</g>
<g clip-path="url(#clip4_2_117)">
<path d="M139.392 167.45L144.472 169.47L144.013 170.624C143.745 171.298 143.221 171.838 142.555 172.125C141.89 172.411 141.137 172.422 140.463 172.154C139.79 171.887 139.25 171.362 138.963 170.696C138.676 170.031 138.666 169.278 138.933 168.605L139.392 167.45ZM147.449 157.947C149.296 158.681 149.162 161.708 148.428 163.555C148.061 164.479 147.232 165.219 146.219 166.421L145.207 167.623L140.127 165.603C140.494 164.679 140.583 163.11 141.501 160.802C142.419 158.493 145.138 157.028 147.449 157.947Z" fill="#2B3237"/>
</g>
<g clip-path="url(#clip5_2_117)">
<path d="M187.863 63.8013L192.584 66.5572L191.957 67.6302C191.592 68.2562 190.993 68.7114 190.291 68.8957C189.59 69.0799 188.845 68.9781 188.219 68.6127C187.593 68.2472 187.138 67.648 186.953 66.9469C186.769 66.2459 186.871 65.5003 187.236 64.8742L187.863 63.8013ZM197.249 55.6084C198.966 56.6105 198.381 59.5836 197.379 61.3004C196.878 62.1587 195.947 62.7665 194.767 63.8035L193.586 64.8405L188.865 62.0846C189.366 61.2262 189.688 59.6882 190.941 57.5423C192.194 55.3964 195.101 54.3547 197.249 55.6084Z" fill="#2B3237"/>
</g>
<g clip-path="url(#clip6_2_117)">
<path d="M223.484 17.5341L226.46 22.1197L225.418 22.796C224.809 23.1906 224.07 23.3275 223.36 23.1765C222.651 23.0256 222.031 22.5992 221.637 21.9911C221.242 21.383 221.105 20.6431 221.256 19.9341C221.407 19.225 221.834 18.605 222.442 18.2104L223.484 17.5341ZM235.553 14.4415C236.635 16.1089 234.775 18.5009 233.107 19.583C232.274 20.124 231.169 20.2482 229.648 20.6429L228.127 21.0376L225.151 16.452C225.985 15.911 226.965 14.6826 229.05 13.3299C231.134 11.9773 234.199 12.3554 235.553 14.4415Z" fill="#2B3237"/>
</g>
<g clip-path="url(#clip7_2_117)">
<path d="M279.603 12.6219L277.229 17.546L276.11 17.0064C275.457 16.6916 274.955 16.1303 274.716 15.446C274.477 14.7616 274.52 14.0104 274.834 13.3574C275.149 12.7044 275.711 12.2032 276.395 11.9641C277.079 11.725 277.831 11.7675 278.484 12.0823L279.603 12.6219ZM288.512 21.3309C287.649 23.1215 284.639 22.7736 282.848 21.9104C281.953 21.4787 281.273 20.5995 280.146 19.5043L279.019 18.4092L281.393 13.4852C282.289 13.9168 283.847 14.1166 286.085 15.1957C288.324 16.2748 289.592 19.0909 288.512 21.3309Z" fill="#2B3237"/>
</g>
<g clip-path="url(#clip8_2_117)">
<path d="M319.936 52.7538L315.61 56.0953L314.851 55.1121C314.408 54.5384 314.21 53.8121 314.303 53.0931C314.395 52.3741 314.769 51.7213 315.343 51.2782C315.917 50.8351 316.643 50.638 317.362 50.7304C318.081 50.8227 318.734 51.1969 319.177 51.7706L319.936 52.7538ZM324.008 64.5288C322.434 65.7439 319.898 64.086 318.683 62.5128C318.075 61.7262 317.861 60.6359 317.343 59.1522L316.825 57.6685L321.151 54.327C321.759 55.1137 323.064 55.9898 324.582 57.9563C326.101 59.9228 325.976 63.0088 324.008 64.5288Z" fill="#2B3237"/>
</g>
<g clip-path="url(#clip9_2_117)">
<path d="M98.8411 241.779L95.0971 238.144L94.2319 239.036C93.727 239.556 93.44 240.246 93.4341 240.954C93.4282 241.663 93.7038 242.332 94.2003 242.814C94.6968 243.296 95.3735 243.551 96.0815 243.525C96.7896 243.498 97.471 243.19 97.9758 242.67L98.8411 241.779ZM104.342 230.665C102.98 229.343 100.306 230.736 98.9215 232.162C98.2293 232.875 97.8774 233.918 97.1795 235.318L96.4815 236.718L100.226 240.353C100.918 239.64 102.296 238.901 104.027 237.118C105.757 235.336 106.045 232.319 104.342 230.665Z" fill="#2B3237"/>
</g>
<g clip-path="url(#clip10_2_117)">
<path d="M131.736 195.65L127.171 193.122L126.569 194.208C126.218 194.842 126.121 195.584 126.301 196.269C126.481 196.954 126.922 197.528 127.527 197.863C128.133 198.198 128.853 198.268 129.529 198.057C130.205 197.845 130.783 197.37 131.134 196.736L131.736 195.65ZM134.135 183.483C132.475 182.564 130.258 184.608 129.296 186.347C128.814 187.216 128.748 188.315 128.441 189.849L128.133 191.383L132.698 193.911C133.18 193.041 134.317 191.967 135.521 189.794C136.724 187.621 136.212 184.633 134.135 183.483Z" fill="#2B3237"/>
</g>
<g clip-path="url(#clip11_2_117)">
<path d="M155.736 143.65L151.171 141.122L150.569 142.208C150.218 142.842 150.121 143.584 150.301 144.269C150.481 144.954 150.922 145.528 151.527 145.863C152.133 146.198 152.853 146.268 153.529 146.057C154.205 145.845 154.783 145.37 155.134 144.736L155.736 143.65ZM158.135 131.483C156.475 130.564 154.258 132.608 153.296 134.347C152.814 135.216 152.748 136.315 152.441 137.849L152.133 139.383L156.698 141.911C157.18 141.042 158.317 139.967 159.521 137.794C160.724 135.621 160.212 132.633 158.135 131.483Z" fill="#2B3237"/>
</g>
<g clip-path="url(#clip12_2_117)">
<path d="M180.736 91.6496L176.171 89.1216L175.569 90.2083C175.218 90.8424 175.121 91.5836 175.301 92.269C175.481 92.9544 175.922 93.5278 176.527 93.863C177.133 94.1982 177.853 94.2679 178.529 94.0565C179.205 93.8452 179.783 93.3703 180.134 92.7363L180.736 91.6496ZM183.135 79.4832C181.475 78.564 179.258 80.6081 178.296 82.3468C177.814 83.2161 177.748 84.3153 177.441 85.8491L177.133 87.3829L181.698 89.9109C182.18 89.0415 183.317 87.9673 184.521 85.7939C185.724 83.6206 185.212 80.6332 183.135 79.4832Z" fill="#2B3237"/>
</g>
<g clip-path="url(#clip13_2_117)">
<path d="M208.646 42.4122L204.638 39.071L203.843 40.0251C203.379 40.5818 203.145 41.2918 203.193 41.9987C203.24 42.7057 203.566 43.3518 204.097 43.7948C204.629 44.2379 205.323 44.4417 206.027 44.3613C206.731 44.281 207.387 43.9231 207.851 43.3664L208.646 42.4122ZM213.291 30.9141C211.833 29.6991 209.272 31.2899 207.999 32.8166C207.363 33.5799 207.091 34.6469 206.501 36.0956L205.911 37.5444L209.919 40.8856C210.555 40.1223 211.874 39.2811 213.465 37.3728C215.056 35.4646 215.114 32.4341 213.291 30.9141Z" fill="#2B3237"/>
</g>
<g clip-path="url(#clip14_2_117)">
<path d="M298.67 34.8888L302.401 31.2408L301.533 30.3526C301.026 29.8344 300.344 29.5295 299.635 29.5052C298.927 29.4808 298.251 29.7389 297.757 30.2226C297.262 30.7064 296.989 31.3762 296.997 32.0847C297.006 32.7932 297.295 33.4824 297.802 34.0006L298.67 34.8888ZM309.637 40.6771C310.994 39.3505 309.671 36.6409 308.282 35.2198C307.587 34.5092 306.553 34.1303 305.172 33.3961L303.791 32.6619L300.06 36.3099C300.754 37.0205 301.457 38.4179 303.194 40.1943C304.931 41.9707 307.94 42.3366 309.637 40.6771Z" fill="#2B3237"/>
</g>
<g clip-path="url(#clip15_2_117)">
<path d="M328.111 81.8039L333.083 80.2194L332.706 79.0359C332.486 78.3453 332.013 77.7665 331.391 77.4268C330.769 77.0871 330.049 77.0142 329.39 77.2244C328.731 77.4345 328.186 77.9103 327.875 78.5472C327.565 79.1841 327.514 79.9298 327.734 80.6204L328.111 81.8039ZM335.312 91.8999C337.12 91.3237 337.154 88.3088 336.551 86.4151C336.249 85.4683 335.496 84.6655 334.591 83.3893L333.686 82.1131L328.715 83.6976C329.016 84.6444 329.017 86.2087 329.771 88.5758C330.526 90.9428 333.05 92.6207 335.312 91.8999Z" fill="#2B3237"/>
</g>
<g clip-path="url(#clip16_2_117)">
<path d="M250.139 12.018L250.183 6.8001L248.94 6.7897C248.216 6.78363 247.518 7.05268 247.002 7.53767C246.485 8.02265 246.192 8.68385 246.186 9.37579C246.18 10.0677 246.462 10.7337 246.971 11.2273C247.479 11.7209 248.172 12.0016 248.897 12.0076L250.139 12.018ZM261.976 8.32202C261.992 6.42459 259.138 5.45191 257.15 5.43527C256.157 5.42695 255.159 5.89298 253.664 6.35486L252.17 6.81674L252.126 12.0347C253.12 12.043 254.607 12.5298 257.091 12.5506C259.575 12.5714 261.956 10.6957 261.976 8.32202Z" fill="#2B3237"/>
</g>
<g clip-path="url(#clip17_2_117)">
<path d="M162.392 115.45L167.472 117.47L167.013 118.624C166.745 119.298 166.221 119.838 165.555 120.125C164.89 120.411 164.137 120.422 163.463 120.154C162.79 119.887 162.25 119.362 161.963 118.696C161.676 118.031 161.666 117.278 161.933 116.605L162.392 115.45ZM170.449 105.947C172.296 106.681 172.162 109.708 171.428 111.556C171.061 112.479 170.232 113.219 169.219 114.421L168.207 115.623L163.127 113.603C163.494 112.68 163.583 111.111 164.501 108.802C165.419 106.493 168.138 105.028 170.449 105.947Z" fill="#2B3237"/>
</g>
<g clip-path="url(#clip18_2_117)">
<path d="M341.89 106.078L336.743 107.92L336.325 106.75C336.08 106.068 336.117 105.316 336.427 104.661C336.737 104.006 337.295 103.5 337.977 103.256C338.66 103.012 339.411 103.049 340.067 103.358C340.722 103.668 341.227 104.226 341.472 104.908L341.89 106.078ZM342.126 118.535C340.254 119.205 338.354 116.844 337.684 114.973C337.349 114.037 337.482 112.934 337.448 111.363L337.413 109.792L342.56 107.95C342.895 108.885 343.865 110.122 344.702 112.461C345.54 114.8 344.467 117.697 342.126 118.535Z" fill="#2B3237"/>
</g>
<g clip-path="url(#clip19_2_117)">
<path d="M351.487 163.081L346.085 163.923L345.894 162.696C345.782 161.979 345.96 161.248 346.387 160.663C346.815 160.077 347.457 159.686 348.174 159.574C348.89 159.462 349.621 159.64 350.207 160.067C350.792 160.495 351.184 161.137 351.295 161.854L351.487 163.081ZM349.377 175.36C347.413 175.667 345.99 172.991 345.684 171.027C345.531 170.045 345.869 168.987 346.13 167.437L346.392 165.887L351.793 165.045C351.946 166.027 352.667 167.424 353.049 169.879C353.432 172.334 351.834 174.977 349.377 175.36Z" fill="#2B3237"/>
</g>
<g clip-path="url(#clip20_2_117)">
<path d="M356.487 219.081L351.085 219.923L350.894 218.696C350.782 217.979 350.96 217.248 351.387 216.663C351.815 216.077 352.457 215.686 353.174 215.574C353.89 215.462 354.621 215.64 355.207 216.067C355.792 216.495 356.184 217.137 356.295 217.854L356.487 219.081ZM354.377 231.36C352.413 231.667 350.99 228.991 350.684 227.027C350.531 226.045 350.869 224.987 351.13 223.437L351.392 221.887L356.793 221.045C356.946 222.027 357.667 223.424 358.049 225.879C358.432 228.334 356.834 230.977 354.377 231.36Z" fill="#2B3237"/>
</g>
<g clip-path="url(#clip21_2_117)">
<path d="M364.46 274.166L359.276 275.902L358.881 274.724C358.651 274.036 358.704 273.286 359.027 272.637C359.35 271.988 359.918 271.494 360.605 271.264C361.293 271.034 362.043 271.086 362.692 271.41C363.341 271.733 363.835 272.301 364.065 272.988L364.46 274.166ZM364.439 286.625C362.554 287.256 360.702 284.857 360.071 282.972C359.756 282.03 359.911 280.93 359.909 279.358L359.907 277.787L365.091 276.051C365.406 276.994 366.351 278.249 367.14 280.606C367.929 282.962 366.797 285.835 364.439 286.625Z" fill="#2B3237"/>
</g>
<g clip-path="url(#clip22_2_117)">
<path d="M396.05 305.533L398.166 310.573L397.021 311.054C396.352 311.334 395.6 311.338 394.929 311.064C394.258 310.79 393.723 310.26 393.443 309.592C393.162 308.923 393.158 308.171 393.433 307.5C393.707 306.829 394.237 306.294 394.905 306.013L396.05 305.533ZM408.477 304.628C409.246 306.461 406.991 308.486 405.158 309.255C404.242 309.64 403.133 309.566 401.566 309.685L399.999 309.804L397.883 304.763C398.8 304.379 399.982 303.343 402.273 302.382C404.564 301.42 407.514 302.335 408.477 304.628Z" fill="#2B3237"/>
</g>
<g clip-path="url(#clip23_2_117)">
<path d="M442.905 275.939L446.354 280.179L445.39 280.963C444.828 281.421 444.107 281.636 443.386 281.562C442.665 281.488 442.002 281.13 441.545 280.568C441.088 280.005 440.872 279.284 440.947 278.563C441.021 277.842 441.378 277.18 441.941 276.723L442.905 275.939ZM454.573 271.572C455.828 273.114 454.234 275.692 452.692 276.946C451.921 277.573 450.836 277.815 449.366 278.37L447.896 278.925L444.447 274.684C445.218 274.057 446.061 272.731 447.988 271.163C449.916 269.595 453.004 269.643 454.573 271.572Z" fill="#2B3237"/>
</g>
<g clip-path="url(#clip24_2_117)">
<path d="M481.937 237.593L486.378 240.78L485.654 241.789C485.231 242.378 484.592 242.775 483.876 242.893C483.161 243.011 482.428 242.839 481.839 242.417C481.25 241.994 480.853 241.355 480.736 240.639C480.618 239.924 480.79 239.191 481.212 238.602L481.937 237.593ZM492.051 230.318C493.666 231.477 492.804 234.382 491.645 235.997C491.066 236.804 490.083 237.322 488.81 238.244L487.537 239.165L483.096 235.978C483.675 235.171 484.14 233.67 485.589 231.651C487.038 229.632 490.03 228.868 492.051 230.318Z" fill="#2B3237"/>
</g>
<g clip-path="url(#clip25_2_117)">
<path d="M510.433 191.025L515.336 193.443L514.786 194.557C514.466 195.207 513.9 195.703 513.213 195.936C512.527 196.169 511.776 196.12 511.126 195.799C510.476 195.479 509.98 194.913 509.747 194.226C509.514 193.54 509.563 192.789 509.884 192.139L510.433 191.025ZM519.221 182.193C521.004 183.073 520.629 186.079 519.75 187.862C519.311 188.754 518.425 189.425 517.32 190.542L516.215 191.66L511.312 189.242C511.752 188.35 511.966 186.794 513.065 184.565C514.164 182.337 516.991 181.093 519.221 182.193Z" fill="#2B3237"/>
</g>
<g clip-path="url(#clip26_2_117)">
<path d="M533.162 140.66L538.366 142.331L537.987 143.514C537.765 144.204 537.278 144.778 536.634 145.109C535.989 145.441 535.239 145.502 534.549 145.281C533.859 145.059 533.285 144.572 532.953 143.928C532.622 143.283 532.56 142.533 532.782 141.843L533.162 140.66ZM540.556 130.632C542.449 131.24 542.52 134.269 541.912 136.162C541.609 137.108 540.832 137.903 539.903 139.17L538.974 140.438L533.769 138.767C534.073 137.821 534.055 136.249 534.815 133.884C535.574 131.518 538.188 129.872 540.556 130.632Z" fill="#2B3237"/>
</g>
<g clip-path="url(#clip27_2_117)">
<path d="M553.162 91.6599L558.366 93.3307L557.987 94.5136C557.765 95.2038 557.278 95.7778 556.634 96.1091C555.989 96.4405 555.239 96.5022 554.549 96.2807C553.859 96.0591 553.285 95.5724 552.953 94.9277C552.622 94.283 552.56 93.533 552.782 92.8428L553.162 91.6599ZM560.556 81.6325C562.449 82.2401 562.52 85.2693 561.912 87.162C561.609 88.1083 560.832 88.9028 559.903 90.1704L558.974 91.438L553.769 89.7672C554.073 88.8208 554.055 87.2494 554.815 84.8836C555.574 82.5177 558.188 80.8724 560.556 81.6325Z" fill="#2B3237"/>
</g>
<g clip-path="url(#clip28_2_117)">
<path d="M341.707 136.141L346.884 135.486L346.728 134.253C346.637 133.534 346.277 132.879 345.728 132.432C345.178 131.985 344.483 131.783 343.797 131.87C343.11 131.956 342.488 132.325 342.067 132.895C341.646 133.465 341.46 134.189 341.551 134.908L341.707 136.141ZM346.954 147.377C348.836 147.139 349.418 144.18 349.169 142.208C349.044 141.223 348.449 140.296 347.791 138.877L347.134 137.458L341.957 138.112C342.081 139.098 341.798 140.637 342.11 143.101C342.421 145.566 344.599 147.675 346.954 147.377Z" fill="#2B3237"/>
</g>
<g clip-path="url(#clip29_2_117)">
<path d="M348.44 191.777L353.617 191.122L353.461 189.89C353.37 189.171 353.01 188.516 352.46 188.069C351.911 187.622 351.216 187.419 350.53 187.506C349.843 187.593 349.221 187.962 348.8 188.532C348.379 189.101 348.193 189.826 348.284 190.545L348.44 191.777ZM353.687 203.013C355.569 202.775 356.151 199.817 355.902 197.845C355.777 196.859 355.182 195.933 354.524 194.513L353.866 193.094L348.69 193.749C348.814 194.735 348.531 196.273 348.842 198.738C349.154 201.202 351.332 203.311 353.687 203.013Z" fill="#2B3237"/>
</g>
<g clip-path="url(#clip30_2_117)">
<path d="M354.44 248.777L359.617 248.122L359.461 246.89C359.37 246.171 359.01 245.516 358.46 245.069C357.911 244.622 357.216 244.419 356.53 244.506C355.843 244.593 355.221 244.962 354.8 245.532C354.379 246.101 354.193 246.826 354.284 247.545L354.44 248.777ZM359.687 260.013C361.569 259.775 362.151 256.817 361.902 254.845C361.777 253.859 361.182 252.933 360.524 251.513L359.866 250.094L354.69 250.749C354.814 251.735 354.531 253.273 354.842 255.738C355.154 258.202 357.332 260.311 359.687 260.013Z" fill="#2B3237"/>
</g>
<g clip-path="url(#clip31_2_117)">
<path d="M370.634 303.629L374.032 299.669L373.09 298.86C372.54 298.388 371.833 298.144 371.126 298.181C370.418 298.219 369.767 298.535 369.317 299.06C368.866 299.585 368.653 300.276 368.723 300.981C368.793 301.686 369.142 302.348 369.692 302.82L370.634 303.629ZM382.065 308.436C383.301 306.996 381.747 304.413 380.238 303.118C379.484 302.471 378.421 302.184 376.981 301.573L375.541 300.963L372.143 304.923C372.897 305.57 373.719 306.901 375.605 308.518C377.49 310.136 380.519 310.238 382.065 308.436Z" fill="#2B3237"/>
</g>
<g clip-path="url(#clip32_2_117)">
<path d="M423.893 297.956L421.124 293.532L420.071 294.191C419.457 294.576 419.014 295.177 418.839 295.864C418.664 296.551 418.772 297.266 419.139 297.852C419.506 298.439 420.102 298.849 420.796 298.992C421.49 299.135 422.225 298.999 422.839 298.615L423.893 297.956ZM431.887 288.476C430.881 286.868 427.951 287.581 426.266 288.636C425.424 289.163 424.833 290.092 423.821 291.285L422.809 292.478L425.577 296.901C426.42 296.374 427.935 295.986 430.041 294.668C432.147 293.35 433.146 290.488 431.887 288.476Z" fill="#2B3237"/>
</g>
<g clip-path="url(#clip33_2_117)">
<path d="M466.855 262.24L463.242 258.475L462.346 259.335C461.823 259.837 461.511 260.516 461.48 261.224C461.449 261.932 461.701 262.61 462.18 263.109C462.659 263.609 463.326 263.888 464.035 263.886C464.743 263.885 465.435 263.602 465.958 263.1L466.855 262.24ZM472.746 251.328C471.432 249.959 468.71 251.256 467.276 252.632C466.559 253.32 466.171 254.35 465.423 255.724L464.676 257.099L468.289 260.864C469.006 260.176 470.41 259.486 472.203 257.766C473.995 256.046 474.39 253.041 472.746 251.328Z" fill="#2B3237"/>
</g>
<g clip-path="url(#clip34_2_117)">
<path d="M502.714 217.562L498.472 214.523L497.748 215.532C497.326 216.122 497.145 216.847 497.244 217.548C497.344 218.25 497.715 218.87 498.278 219.273C498.84 219.676 499.547 219.829 500.244 219.697C500.94 219.566 501.568 219.161 501.99 218.571L502.714 217.562ZM506.505 205.755C504.962 204.649 502.524 206.423 501.366 208.039C500.788 208.847 500.595 209.931 500.112 211.419L499.629 212.907L503.871 215.946C504.45 215.138 505.704 214.203 507.151 212.183C508.598 210.164 508.434 207.137 506.505 205.755Z" fill="#2B3237"/>
</g>
<g clip-path="url(#clip35_2_117)">
<path d="M527.569 168.487L522.861 166.236L522.325 167.357C522.013 168.011 521.961 168.757 522.182 169.43C522.402 170.104 522.877 170.65 523.501 170.948C524.125 171.246 524.848 171.273 525.511 171.021C526.173 170.77 526.721 170.261 527.034 169.607L527.569 168.487ZM529.236 156.198C527.524 155.38 525.434 157.553 524.577 159.347C524.148 160.243 524.148 161.344 523.933 162.894L523.718 164.443L528.426 166.693C528.855 165.797 529.925 164.656 530.997 162.415C532.068 160.173 531.377 157.222 529.236 156.198Z" fill="#2B3237"/>
</g>
<g clip-path="url(#clip36_2_117)">
<path d="M548.706 116.623L543.998 114.373L543.462 115.494C543.15 116.148 543.098 116.894 543.319 117.567C543.539 118.24 544.014 118.786 544.638 119.085C545.262 119.383 545.985 119.409 546.648 119.158C547.31 118.906 547.858 118.398 548.171 117.744L548.706 116.623ZM550.373 104.335C548.661 103.517 546.571 105.69 545.714 107.483C545.285 108.38 545.285 109.481 545.07 111.03L544.855 112.58L549.563 114.83C549.992 113.933 551.062 112.793 552.134 110.551C553.205 108.31 552.514 105.358 550.373 104.335Z" fill="#2B3237"/>
</g>
<path d="M80.2 199.96C77.0267 199.96 74.5533 199.073 72.78 197.3C71.1 195.433 70.1667 191.933 69.98 186.8C69.8867 181.293 69.6067 175.833 69.14 170.42C68.6733 165.007 67.9267 159.873 66.9 155.02C65.5 147.927 63.5867 141.533 61.16 135.84C58.7333 130.147 55.3267 125.247 50.94 121.14C50.1933 120.393 49.5867 119.693 49.12 119.04C48.6533 118.387 48.42 117.64 48.42 116.8C48.42 114.84 49.4467 112.973 51.5 111.2C53.5533 109.333 55.98 108.4 58.78 108.4C62.0467 108.4 64.8467 109.8 67.18 112.6C69.5133 115.4 71.52 119.32 73.2 124.36C75.16 129.493 76.7 135.093 77.82 141.16C78.94 147.227 79.6867 153.433 80.06 159.78C80.5267 166.033 80.76 172.1 80.76 177.98C80.76 180.033 81.04 181.387 81.6 182.04C82.16 182.693 83.14 183.02 84.54 183.02C87.62 183.02 90.6533 182.087 93.64 180.22C96.72 178.353 99.4733 175.833 101.9 172.66C104.42 169.393 106.427 165.8 107.92 161.88C109.413 157.96 110.207 153.993 110.3 149.98C110.393 145.78 109.647 141.72 108.06 137.8C106.567 133.787 104.607 130.38 102.18 127.58C101.527 126.833 101.013 126.18 100.64 125.62C100.36 124.967 100.22 124.313 100.22 123.66C100.22 122.167 100.827 120.72 102.04 119.32C103.253 117.92 104.653 116.753 106.24 115.82C107.827 114.887 109.18 114.42 110.3 114.42C112.633 114.42 114.593 116.147 116.18 119.6C117.86 122.96 119.26 127.067 120.38 131.92C121.967 138.08 123.087 144.987 123.74 152.64C124.393 160.293 124.72 168.367 124.72 176.86C124.72 179.193 124.953 180.78 125.42 181.62C125.887 182.46 126.913 182.88 128.5 182.88C131.86 182.88 135.127 181.667 138.3 179.24C141.473 176.813 144.273 173.5 146.7 169.3C149.22 165.007 151.18 160.153 152.58 154.74C154.073 149.233 154.82 143.447 154.82 137.38C154.82 132.807 154.447 129.12 153.7 126.32C153.047 123.427 152.393 121.373 151.74 120.16C150.807 118.387 150.34 116.893 150.34 115.68C150.34 114.28 150.947 112.973 152.16 111.76C153.467 110.453 155.007 109.38 156.78 108.54C158.553 107.7 160.093 107.28 161.4 107.28C163.453 107.28 164.9 108.167 165.74 109.94C166.673 111.62 167.233 113.72 167.42 116.24C167.7 118.76 167.84 121.14 167.84 123.38C167.84 129.82 167.14 136.587 165.74 143.68C164.433 150.68 162.52 157.54 160 164.26C157.48 170.887 154.447 176.907 150.9 182.32C147.447 187.64 143.527 191.933 139.14 195.2C134.753 198.373 130.04 199.96 125 199.96C121.64 199.96 119.167 199.213 117.58 197.72C115.993 196.227 114.967 194.127 114.5 191.42C114.033 188.713 113.8 185.54 113.8 181.9C113.8 179.753 113.8 177.747 113.8 175.88C113.893 173.92 113.94 172.147 113.94 170.56C109.647 180.173 104.467 187.5 98.4 192.54C92.3333 197.487 86.2667 199.96 80.2 199.96ZM187.164 199.82C181.564 199.82 177.038 198.093 173.584 194.64C170.224 191.093 168.544 186.053 168.544 179.52C168.544 174.853 169.431 170.233 171.204 165.66C173.071 160.993 175.731 156.793 179.184 153.06C182.638 149.327 186.791 146.34 191.644 144.1C196.498 141.86 201.958 140.74 208.024 140.74C213.624 140.74 218.384 141.72 222.304 143.68C226.318 145.547 228.324 148.113 228.324 151.38C228.324 152.22 228.231 153.34 228.044 154.74C227.858 156.047 227.624 157.12 227.344 157.96C227.064 158.707 226.644 159.407 226.084 160.06C225.618 160.62 224.964 160.9 224.124 160.9C223.751 160.9 223.051 160.76 222.024 160.48C221.651 162.44 221.371 164.353 221.184 166.22C220.998 168.087 220.904 169.953 220.904 171.82C220.904 175.367 221.418 178.54 222.444 181.34C223.564 184.047 225.711 185.727 228.884 186.38C229.724 186.567 230.378 186.847 230.844 187.22C231.404 187.593 231.684 188.387 231.684 189.6C231.684 190.627 231.404 191.933 230.844 193.52C230.378 195.107 229.398 196.553 227.904 197.86C226.504 199.073 224.451 199.68 221.744 199.68C218.104 199.68 215.304 198.373 213.344 195.76C211.384 193.053 210.404 189.227 210.404 184.28C207.884 188.853 204.664 192.587 200.744 195.48C196.918 198.373 192.391 199.82 187.164 199.82ZM191.644 185.26C195.378 185.26 198.644 184.093 201.444 181.76C204.338 179.427 206.578 176.487 208.164 172.94C209.191 170.7 209.984 168.273 210.544 165.66C211.104 162.953 211.478 160.293 211.664 157.68C210.078 156.933 208.258 156.327 206.204 155.86C204.151 155.393 202.004 155.16 199.764 155.16C194.071 155.16 189.358 156.84 185.624 160.2C181.984 163.56 180.164 167.76 180.164 172.8C180.164 176.533 181.191 179.567 183.244 181.9C185.298 184.14 188.098 185.26 191.644 185.26ZM248.191 199.54C244.831 199.54 243.338 198.42 243.711 196.18C244.738 192.167 245.578 188.107 246.231 184C246.978 179.8 247.351 175.787 247.351 171.96C247.351 167.013 247.025 163.42 246.371 161.18C245.811 158.847 245.018 157.26 243.991 156.42C242.965 155.487 241.705 154.787 240.211 154.32C239.558 154.04 238.951 153.667 238.391 153.2C237.925 152.733 237.691 152.08 237.691 151.24C237.691 149.933 238.205 148.487 239.231 146.9C240.258 145.313 241.705 143.96 243.571 142.84C245.531 141.627 247.725 141.02 250.151 141.02C253.325 141.02 255.518 142.14 256.731 144.38C257.945 146.527 258.551 149.373 258.551 152.92C258.551 155.253 258.318 157.867 257.851 160.76C257.385 163.653 256.918 166.267 256.451 168.6L256.871 168.74C258.738 163.793 260.978 159.22 263.591 155.02C266.298 150.727 269.425 147.273 272.971 144.66C276.518 142.047 280.625 140.74 285.291 140.74C290.238 140.74 294.018 142.233 296.631 145.22C299.245 148.207 300.551 151.94 300.551 156.42C300.551 158.287 300.318 160.06 299.851 161.74C299.478 163.42 299.058 165.053 298.591 166.64C298.125 168.133 297.705 169.673 297.331 171.26C297.051 172.847 296.911 174.433 296.911 176.02C296.911 181.34 299.431 184.933 304.471 186.8C305.778 187.36 306.431 188.2 306.431 189.32C306.431 190.16 306.151 191.373 305.591 192.96C305.031 194.547 304.005 196.04 302.511 197.44C301.018 198.747 298.825 199.4 295.931 199.4C292.198 199.4 289.305 198.093 287.251 195.48C285.198 192.773 284.171 189.367 284.171 185.26C284.171 182.927 284.405 180.593 284.871 178.26C285.431 175.833 285.991 173.593 286.551 171.54C286.925 169.953 287.251 168.413 287.531 166.92C287.905 165.333 288.091 163.933 288.091 162.72C288.091 158.427 285.851 156.28 281.371 156.28C277.545 156.28 274.185 157.727 271.291 160.62C268.398 163.42 265.925 166.967 263.871 171.26C261.818 175.553 260.138 179.893 258.831 184.28V187.64C258.831 191.093 257.851 193.94 255.891 196.18C254.025 198.42 251.458 199.54 248.191 199.54ZM332.91 199.82C327.31 199.82 322.877 197.953 319.61 194.22C316.437 190.487 314.85 185.4 314.85 178.96C314.85 174.2 315.597 169.533 317.09 164.96C318.677 160.387 320.87 156.28 323.67 152.64C326.47 149 329.737 146.107 333.47 143.96C337.203 141.813 341.263 140.74 345.65 140.74C348.45 140.74 350.923 141.16 353.07 142C355.31 142.84 357.27 143.913 358.95 145.22C358.857 138.873 358.53 133.18 357.97 128.14C357.41 123.1 356.057 118.433 353.91 114.14C353.537 113.393 353.21 112.74 352.93 112.18C352.743 111.527 352.65 110.92 352.65 110.36C352.65 109.053 353.163 107.84 354.19 106.72C355.31 105.6 356.663 104.667 358.25 103.92C359.837 103.173 361.33 102.8 362.73 102.8C365.25 102.8 367.117 103.92 368.33 106.16C369.637 108.307 370.477 111.293 370.85 115.12C371.223 118.853 371.41 123.147 371.41 128C371.41 135.093 371.083 141.487 370.43 147.18C369.777 152.873 369.17 157.867 368.61 162.16C368.237 164.96 367.91 167.387 367.63 169.44C367.35 171.493 367.21 173.173 367.21 174.48C367.21 181.107 370.057 185.027 375.75 186.24C377.243 186.52 377.99 187.5 377.99 189.18C377.99 190.207 377.663 191.513 377.01 193.1C376.45 194.687 375.377 196.133 373.79 197.44C372.203 198.653 369.917 199.26 366.93 199.26C362.917 199.26 360.21 197.907 358.81 195.2C357.41 192.493 356.71 188.387 356.71 182.88C354.097 187.64 350.783 191.653 346.77 194.92C342.757 198.187 338.137 199.82 332.91 199.82ZM337.25 184.84C339.863 184.84 342.477 184 345.09 182.32C347.703 180.64 350.037 178.353 352.09 175.46C353.303 173.687 354.377 171.68 355.31 169.44C356.337 167.107 357.27 164.773 358.11 162.44C353.35 158.147 348.077 156 342.29 156C337.25 156 333.237 157.54 330.25 160.62C327.263 163.607 325.77 167.34 325.77 171.82C325.77 175.647 326.89 178.773 329.13 181.2C331.37 183.627 334.077 184.84 337.25 184.84ZM404.41 199.82C398.81 199.82 394.284 198.093 390.83 194.64C387.47 191.093 385.79 186.053 385.79 179.52C385.79 174.853 386.677 170.233 388.45 165.66C390.317 160.993 392.977 156.793 396.43 153.06C399.884 149.327 404.037 146.34 408.89 144.1C413.744 141.86 419.204 140.74 425.27 140.74C430.87 140.74 435.63 141.72 439.55 143.68C443.564 145.547 445.57 148.113 445.57 151.38C445.57 152.22 445.477 153.34 445.29 154.74C445.104 156.047 444.87 157.12 444.59 157.96C444.31 158.707 443.89 159.407 443.33 160.06C442.864 160.62 442.21 160.9 441.37 160.9C440.997 160.9 440.297 160.76 439.27 160.48C438.897 162.44 438.617 164.353 438.43 166.22C438.244 168.087 438.15 169.953 438.15 171.82C438.15 175.367 438.664 178.54 439.69 181.34C440.81 184.047 442.957 185.727 446.13 186.38C446.97 186.567 447.624 186.847 448.09 187.22C448.65 187.593 448.93 188.387 448.93 189.6C448.93 190.627 448.65 191.933 448.09 193.52C447.624 195.107 446.644 196.553 445.15 197.86C443.75 199.073 441.697 199.68 438.99 199.68C435.35 199.68 432.55 198.373 430.59 195.76C428.63 193.053 427.65 189.227 427.65 184.28C425.13 188.853 421.91 192.587 417.99 195.48C414.164 198.373 409.637 199.82 404.41 199.82ZM408.89 185.26C412.624 185.26 415.89 184.093 418.69 181.76C421.584 179.427 423.824 176.487 425.41 172.94C426.437 170.7 427.23 168.273 427.79 165.66C428.35 162.953 428.724 160.293 428.91 157.68C427.324 156.933 425.504 156.327 423.45 155.86C421.397 155.393 419.25 155.16 417.01 155.16C411.317 155.16 406.604 156.84 402.87 160.2C399.23 163.56 397.41 167.76 397.41 172.8C397.41 176.533 398.437 179.567 400.49 181.9C402.544 184.14 405.344 185.26 408.89 185.26ZM465.997 199.54C464.504 199.54 463.291 199.26 462.357 198.7C461.517 198.233 461.237 197.393 461.517 196.18C462.544 192.167 463.384 188.107 464.037 184C464.784 179.8 465.157 175.787 465.157 171.96C465.157 167.013 464.831 163.42 464.177 161.18C463.617 158.847 462.824 157.26 461.797 156.42C460.771 155.487 459.511 154.787 458.017 154.32C457.364 154.04 456.757 153.667 456.197 153.2C455.731 152.733 455.497 152.08 455.497 151.24C455.497 149.933 456.011 148.487 457.037 146.9C458.064 145.313 459.511 143.96 461.377 142.84C463.244 141.627 465.391 141.02 467.817 141.02C470.991 141.02 473.184 142.14 474.397 144.38C475.704 146.527 476.357 149.373 476.357 152.92C478.037 149.187 480.091 146.247 482.517 144.1C485.037 141.86 488.164 140.74 491.897 140.74C494.417 140.74 496.517 141.3 498.197 142.42C499.877 143.54 500.717 145.36 500.717 147.88C500.717 150.4 499.877 152.78 498.197 155.02C496.611 157.167 494.977 158.24 493.297 158.24C493.017 158.24 492.691 158.193 492.317 158.1C491.944 158.007 491.617 157.773 491.337 157.4C490.124 155.907 488.631 155.16 486.857 155.16C484.151 155.16 481.771 156.933 479.717 160.48C477.664 164.027 476.544 168.927 476.357 175.18C476.451 177.513 476.497 179.893 476.497 182.32C476.591 184.747 476.637 186.52 476.637 187.64C476.637 191.093 475.657 193.94 473.697 196.18C471.831 198.42 469.264 199.54 465.997 199.54ZM524.284 199.82C517.191 199.82 511.638 197.813 507.624 193.8C503.704 189.693 501.744 184 501.744 176.72C501.744 170.093 503.191 164.073 506.084 158.66C508.978 153.247 512.851 148.953 517.704 145.78C522.651 142.513 528.064 140.88 533.944 140.88C539.544 140.88 544.024 142.28 547.384 145.08C550.744 147.787 552.424 151.427 552.424 156C552.424 159.64 551.304 163 549.064 166.08C546.824 169.16 543.838 171.633 540.104 173.5C536.371 175.273 532.218 176.16 527.644 176.16C522.044 176.16 517.471 174.9 513.924 172.38C514.018 176.673 515.464 180.127 518.264 182.74C521.158 185.353 524.844 186.66 529.324 186.66C532.031 186.66 534.784 186.193 537.584 185.26C540.478 184.233 542.951 182.88 545.004 181.2C546.311 180.08 547.524 179.52 548.644 179.52C549.578 179.52 550.324 179.847 550.884 180.5C551.538 181.06 551.864 181.807 551.864 182.74C551.864 184.793 550.091 187.5 546.544 190.86C540.291 196.833 532.871 199.82 524.284 199.82ZM526.384 166.92C529.744 166.92 532.544 166.22 534.784 164.82C537.024 163.42 538.144 161.647 538.144 159.5C538.144 157.727 537.398 156.373 535.904 155.44C534.411 154.413 532.358 153.9 529.744 153.9C526.291 153.9 523.258 154.833 520.644 156.7C518.124 158.473 516.304 160.993 515.184 164.26C516.491 165.1 518.171 165.753 520.224 166.22C522.278 166.687 524.331 166.92 526.384 166.92Z" fill="#0E376F"/>
<defs>
<clipPath id="clip0_2_117">
<rect width="76" height="76" fill="white" transform="translate(0 219)"/>
</clipPath>
<clipPath id="clip1_2_117">
<rect width="76" height="76" fill="white" transform="translate(521)"/>
</clipPath>
<clipPath id="clip2_2_117">
<rect width="7.95125" height="15.9025" fill="white" transform="translate(83.2825 242) rotate(56.6417)"/>
</clipPath>
<clipPath id="clip3_2_117">
<rect width="7.95125" height="15.9025" fill="white" transform="translate(117.149 207) rotate(30.8244)"/>
</clipPath>
<clipPath id="clip4_2_117">
<rect width="7.95125" height="15.9025" fill="white" transform="translate(142.875 156) rotate(21.6814)"/>
</clipPath>
<clipPath id="clip5_2_117">
<rect width="7.95125" height="15.9025" fill="white" transform="translate(193.017 53) rotate(30.2748)"/>
</clipPath>
<clipPath id="clip6_2_117">
<rect width="7.95125" height="15.9025" fill="white" transform="translate(232.948 10.2078) rotate(57.0189)"/>
</clipPath>
<clipPath id="clip7_2_117">
<rect width="7.95125" height="15.9025" fill="white" transform="translate(290.778 16.9062) rotate(115.74)"/>
</clipPath>
<clipPath id="clip8_2_117">
<rect width="7.95125" height="15.9025" fill="white" transform="translate(328.013 61.5856) rotate(142.319)"/>
</clipPath>
<clipPath id="clip9_2_117">
<rect width="7.59" height="15.9" fill="white" transform="matrix(-0.717496 -0.696562 -0.696562 0.717496 107.828 233.884)"/>
</clipPath>
<clipPath id="clip10_2_117">
<rect width="7.59" height="15.9" fill="white" transform="matrix(-0.874817 -0.484453 -0.484453 0.874817 138.343 185.677)"/>
</clipPath>
<clipPath id="clip11_2_117">
<rect width="7.59" height="15.9" fill="white" transform="matrix(-0.874817 -0.484453 -0.484453 0.874817 162.343 133.677)"/>
</clipPath>
<clipPath id="clip12_2_117">
<rect width="7.59" height="15.9" fill="white" transform="matrix(-0.874817 -0.484453 -0.484453 0.874817 187.343 81.677)"/>
</clipPath>
<clipPath id="clip13_2_117">
<rect width="7.59" height="15.9" fill="white" transform="matrix(-0.768109 -0.640319 -0.640319 0.768109 217.011 33.86)"/>
</clipPath>
<clipPath id="clip14_2_117">
<rect width="7.59" height="15.9" fill="white" transform="matrix(0.71502 -0.699104 -0.699104 -0.71502 306.328 44.0787)"/>
</clipPath>
<clipPath id="clip15_2_117">
<rect width="7.59" height="15.9" fill="white" transform="matrix(0.952783 -0.303651 -0.303651 -0.952783 330.828 93.454)"/>
</clipPath>
<clipPath id="clip16_2_117">
<rect width="7.59" height="15.9" fill="white" transform="matrix(0.00837286 -0.999965 -0.999965 -0.00837286 262.055 13.0666)"/>
</clipPath>
<clipPath id="clip17_2_117">
<rect width="7.95125" height="15.9025" fill="white" transform="translate(165.875 104) rotate(21.6814)"/>
</clipPath>
<clipPath id="clip18_2_117">
<rect width="7.95125" height="15.9025" fill="white" transform="translate(346.845 116.972) rotate(160.307)"/>
</clipPath>
<clipPath id="clip19_2_117">
<rect width="7.95125" height="15.9025" fill="white" transform="translate(354.306 174.713) rotate(171.14)"/>
</clipPath>
<clipPath id="clip20_2_117">
<rect width="7.95125" height="15.9025" fill="white" transform="translate(359.306 230.713) rotate(171.14)"/>
</clipPath>
<clipPath id="clip21_2_117">
<rect width="7.95125" height="15.9025" fill="white" transform="translate(369.189 285.16) rotate(161.488)"/>
</clipPath>
<clipPath id="clip22_2_117">
<rect width="7.95125" height="15.9025" fill="white" transform="translate(406.663 300) rotate(67.2297)"/>
</clipPath>
<clipPath id="clip23_2_117">
<rect width="7.95125" height="15.9025" fill="white" transform="translate(451.53 267.642) rotate(50.8763)"/>
</clipPath>
<clipPath id="clip24_2_117">
<rect width="7.95125" height="15.9025" fill="white" transform="translate(488.083 227.324) rotate(35.6636)"/>
</clipPath>
<clipPath id="clip25_2_117">
<rect width="7.95125" height="15.9025" fill="white" transform="translate(514.817 179.888) rotate(26.2518)"/>
</clipPath>
<clipPath id="clip26_2_117">
<rect width="7.95125" height="15.9025" fill="white" transform="translate(535.861 129) rotate(17.7973)"/>
</clipPath>
<clipPath id="clip27_2_117">
<rect width="7.95125" height="15.9025" fill="white" transform="translate(555.861 80) rotate(17.7973)"/>
</clipPath>
<clipPath id="clip28_2_117">
<rect width="7.59" height="15.9" fill="white" transform="matrix(0.992095 -0.125485 -0.125485 -0.992095 342.262 148.09)"/>
</clipPath>
<clipPath id="clip29_2_117">
<rect width="7.59" height="15.9" fill="white" transform="matrix(0.992095 -0.125485 -0.125485 -0.992095 348.995 203.727)"/>
</clipPath>
<clipPath id="clip30_2_117">
<rect width="7.59" height="15.9" fill="white" transform="matrix(0.992095 -0.125485 -0.125485 -0.992095 354.995 260.727)"/>
</clipPath>
<clipPath id="clip31_2_117">
<rect width="7.59" height="15.9" fill="white" transform="matrix(0.651194 -0.758911 -0.758911 -0.651194 379.067 312.114)"/>
</clipPath>
<clipPath id="clip32_2_117">
<rect width="7.59" height="15.9" fill="white" transform="matrix(-0.530462 -0.847709 -0.847709 0.530462 434.505 292.434)"/>
</clipPath>
<clipPath id="clip33_2_117">
<rect width="7.59" height="15.9" fill="white" transform="matrix(-0.69233 -0.721581 -0.721581 0.69233 476.116 254.669)"/>
</clipPath>
<clipPath id="clip34_2_117">
<rect width="7.59" height="15.9" fill="white" transform="matrix(-0.812899 -0.582405 -0.582405 0.812899 510.43 208.42)"/>
</clipPath>
<clipPath id="clip35_2_117">
<rect width="7.59" height="15.9" fill="white" transform="matrix(-0.902259 -0.431194 -0.431194 0.902259 533.567 158.136)"/>
</clipPath>
<clipPath id="clip36_2_117">
<rect width="7.59" height="15.9" fill="white" transform="matrix(-0.902259 -0.431194 -0.431194 0.902259 554.704 106.273)"/>
</clipPath>
</defs>
</svg>
