<svg width="597" height="314" viewBox="0 0 597 314" fill="none" xmlns="http://www.w3.org/2000/svg">
<g clip-path="url(#clip0_2_114)">
<path d="M52.25 223.75C53.5098 223.75 54.718 224.25 55.6088 225.141C56.4996 226.032 57 227.24 57 228.5V285.5C57 286.76 56.4996 287.968 55.6088 288.859C54.718 289.75 53.5098 290.25 52.25 290.25H23.75C22.4902 290.25 21.282 289.75 20.3912 288.859C19.5004 287.968 19 286.76 19 285.5V228.5C19 227.24 19.5004 226.032 20.3912 225.141C21.282 224.25 22.4902 223.75 23.75 223.75H52.25ZM23.75 219C21.2304 219 18.8141 220.001 17.0325 221.782C15.2509 223.564 14.25 225.98 14.25 228.5V285.5C14.25 288.02 15.2509 290.436 17.0325 292.218C18.8141 293.999 21.2304 295 23.75 295H52.25C54.7696 295 57.1859 293.999 58.9675 292.218C60.7491 290.436 61.75 288.02 61.75 285.5V228.5C61.75 225.98 60.7491 223.564 58.9675 221.782C57.1859 220.001 54.7696 219 52.25 219H23.75Z" fill="#2B3237"/>
<path d="M38 285.5C39.2598 285.5 40.468 285 41.3588 284.109C42.2496 283.218 42.75 282.01 42.75 280.75C42.75 279.49 42.2496 278.282 41.3588 277.391C40.468 276.5 39.2598 276 38 276C36.7402 276 35.532 276.5 34.6412 277.391C33.7504 278.282 33.25 279.49 33.25 280.75C33.25 282.01 33.7504 283.218 34.6412 284.109C35.532 285 36.7402 285.5 38 285.5Z" fill="#2B3237"/>
</g>
<g clip-path="url(#clip1_2_114)">
<path d="M573.25 4.75C574.51 4.75 575.718 5.25044 576.609 6.14124C577.5 7.03204 578 8.24022 578 9.5V66.5C578 67.7598 577.5 68.968 576.609 69.8588C575.718 70.7496 574.51 71.25 573.25 71.25H544.75C543.49 71.25 542.282 70.7496 541.391 69.8588C540.5 68.968 540 67.7598 540 66.5V9.5C540 8.24022 540.5 7.03204 541.391 6.14124C542.282 5.25044 543.49 4.75 544.75 4.75H573.25ZM544.75 0C542.23 0 539.814 1.00089 538.032 2.78249C536.251 4.56408 535.25 6.98044 535.25 9.5V66.5C535.25 69.0196 536.251 71.4359 538.032 73.2175C539.814 74.9991 542.23 76 544.75 76H573.25C575.77 76 578.186 74.9991 579.968 73.2175C581.749 71.4359 582.75 69.0196 582.75 66.5V9.5C582.75 6.98044 581.749 4.56408 579.968 2.78249C578.186 1.00089 575.77 0 573.25 0L544.75 0Z" fill="#2B3237"/>
<path d="M559 66.5C560.26 66.5 561.468 65.9996 562.359 65.1088C563.25 64.218 563.75 63.0098 563.75 61.75C563.75 60.4902 563.25 59.282 562.359 58.3912C561.468 57.5004 560.26 57 559 57C557.74 57 556.532 57.5004 555.641 58.3912C554.75 59.282 554.25 60.4902 554.25 61.75C554.25 63.0098 554.75 64.218 555.641 65.1088C556.532 65.9996 557.74 66.5 559 66.5Z" fill="#2B3237"/>
</g>
<g clip-path="url(#clip2_2_114)">
<path d="M73.8672 249.388L76.873 253.954L75.8353 254.637C75.2299 255.036 74.4908 255.178 73.7808 255.031C73.0709 254.885 72.4481 254.463 72.0495 253.857C71.6509 253.252 71.5091 252.513 71.6554 251.803C71.8017 251.093 72.224 250.47 72.8295 250.072L73.8672 249.388ZM85.9155 246.216C87.0086 247.877 85.1642 250.281 83.5039 251.374C82.6738 251.92 81.5703 252.052 80.0518 252.457L78.5333 252.861L75.5275 248.295C76.3576 247.749 77.3296 246.514 79.405 245.148C81.4804 243.781 84.5481 244.139 85.9155 246.216Z" fill="#2B3237"/>
</g>
<g clip-path="url(#clip3_2_114)">
<path d="M111.891 217.751L116.585 220.552L115.948 221.619C115.577 222.242 114.973 222.691 114.271 222.869C113.568 223.046 112.823 222.937 112.201 222.566C111.578 222.194 111.129 221.591 110.951 220.888C110.774 220.185 110.883 219.441 111.254 218.818L111.891 217.751ZM121.355 209.649C123.062 210.667 122.449 213.635 121.43 215.342C120.921 216.195 119.985 216.794 118.794 217.82L117.604 218.845L112.909 216.044C113.419 215.191 113.756 213.656 115.029 211.522C116.302 209.388 119.22 208.375 121.355 209.649Z" fill="#2B3237"/>
</g>
<g clip-path="url(#clip4_2_114)">
<path d="M139.392 167.45L144.472 169.47L144.013 170.624C143.745 171.298 143.221 171.838 142.555 172.125C141.889 172.411 141.137 172.422 140.463 172.154C139.79 171.887 139.25 171.362 138.963 170.696C138.676 170.031 138.666 169.278 138.933 168.605L139.392 167.45ZM147.449 157.947C149.296 158.681 149.162 161.708 148.428 163.555C148.061 164.479 147.232 165.219 146.219 166.421L145.206 167.623L140.127 165.603C140.494 164.679 140.583 163.11 141.501 160.802C142.419 158.493 145.138 157.028 147.449 157.947Z" fill="#2B3237"/>
</g>
<g clip-path="url(#clip5_2_114)">
<path d="M187.863 63.8013L192.584 66.5572L191.957 67.6302C191.592 68.2562 190.993 68.7114 190.292 68.8957C189.59 69.0799 188.845 68.9781 188.219 68.6127C187.593 68.2472 187.138 67.648 186.953 66.9469C186.769 66.2459 186.871 65.5003 187.236 64.8742L187.863 63.8013ZM197.249 55.6084C198.966 56.6105 198.381 59.5836 197.379 61.3004C196.878 62.1587 195.947 62.7665 194.767 63.8035L193.586 64.8405L188.865 62.0846C189.366 61.2262 189.688 59.6882 190.941 57.5423C192.194 55.3964 195.101 54.3547 197.249 55.6084Z" fill="#2B3237"/>
</g>
<g clip-path="url(#clip6_2_114)">
<path d="M223.484 17.5341L226.46 22.1197L225.418 22.796C224.809 23.1906 224.07 23.3275 223.36 23.1765C222.651 23.0256 222.031 22.5992 221.637 21.9911C221.242 21.383 221.105 20.6431 221.256 19.9341C221.407 19.225 221.834 18.605 222.442 18.2104L223.484 17.5341ZM235.553 14.4415C236.635 16.1089 234.775 18.5009 233.107 19.583C232.274 20.124 231.169 20.2482 229.648 20.6429L228.127 21.0376L225.151 16.452C225.985 15.911 226.965 14.6826 229.05 13.3299C231.134 11.9773 234.199 12.3554 235.553 14.4415Z" fill="#2B3237"/>
</g>
<g clip-path="url(#clip7_2_114)">
<path d="M279.603 12.6219L277.229 17.546L276.109 17.0064C275.457 16.6916 274.955 16.1303 274.716 15.446C274.477 14.7616 274.52 14.0104 274.834 13.3574C275.149 12.7044 275.711 12.2032 276.395 11.9641C277.079 11.725 277.831 11.7675 278.484 12.0823L279.603 12.6219ZM288.512 21.3309C287.649 23.1215 284.639 22.7736 282.848 21.9104C281.953 21.4787 281.273 20.5995 280.146 19.5043L279.019 18.4092L281.393 13.4852C282.288 13.9168 283.847 14.1166 286.085 15.1957C288.324 16.2748 289.592 19.0909 288.512 21.3309Z" fill="#2B3237"/>
</g>
<g clip-path="url(#clip8_2_114)">
<path d="M319.936 52.7538L315.61 56.0953L314.851 55.1121C314.408 54.5384 314.21 53.8121 314.303 53.0931C314.395 52.3741 314.769 51.7213 315.343 51.2782C315.917 50.8351 316.643 50.638 317.362 50.7304C318.081 50.8227 318.734 51.1969 319.177 51.7706L319.936 52.7538ZM324.008 64.5288C322.434 65.7439 319.898 64.086 318.683 62.5128C318.075 61.7262 317.861 60.6359 317.343 59.1522L316.825 57.6685L321.151 54.327C321.759 55.1137 323.064 55.9898 324.582 57.9563C326.101 59.9228 325.976 63.0088 324.008 64.5288Z" fill="#2B3237"/>
</g>
<g clip-path="url(#clip9_2_114)">
<path d="M98.8411 241.779L95.0971 238.144L94.2318 239.036C93.727 239.556 93.44 240.246 93.4341 240.954C93.4282 241.663 93.7038 242.332 94.2003 242.814C94.6967 243.296 95.3734 243.551 96.0815 243.525C96.7896 243.498 97.471 243.19 97.9758 242.67L98.8411 241.779ZM104.342 230.665C102.98 229.343 100.306 230.736 98.9215 232.162C98.2293 232.875 97.8774 233.918 97.1795 235.318L96.4815 236.718L100.225 240.353C100.918 239.64 102.296 238.901 104.027 237.118C105.757 235.336 106.045 232.319 104.342 230.665Z" fill="#2B3237"/>
</g>
<g clip-path="url(#clip10_2_114)">
<path d="M131.736 195.65L127.171 193.122L126.569 194.208C126.218 194.842 126.122 195.584 126.301 196.269C126.481 196.954 126.922 197.528 127.527 197.863C128.133 198.198 128.853 198.268 129.529 198.057C130.205 197.845 130.783 197.37 131.134 196.736L131.736 195.65ZM134.135 183.483C132.475 182.564 130.259 184.608 129.296 186.347C128.814 187.216 128.748 188.315 128.441 189.849L128.134 191.383L132.698 193.911C133.18 193.041 134.317 191.967 135.521 189.794C136.724 187.621 136.212 184.633 134.135 183.483Z" fill="#2B3237"/>
</g>
<g clip-path="url(#clip11_2_114)">
<path d="M155.736 143.65L151.171 141.122L150.569 142.208C150.218 142.842 150.121 143.584 150.301 144.269C150.481 144.954 150.922 145.528 151.527 145.863C152.133 146.198 152.853 146.268 153.529 146.057C154.205 145.845 154.783 145.37 155.134 144.736L155.736 143.65ZM158.135 131.483C156.475 130.564 154.259 132.608 153.296 134.347C152.814 135.216 152.748 136.315 152.441 137.849L152.134 139.383L156.698 141.911C157.18 141.042 158.317 139.967 159.521 137.794C160.724 135.621 160.212 132.633 158.135 131.483Z" fill="#2B3237"/>
</g>
<g clip-path="url(#clip12_2_114)">
<path d="M180.736 91.6496L176.171 89.1216L175.569 90.2083C175.218 90.8424 175.121 91.5836 175.301 92.269C175.481 92.9544 175.922 93.5278 176.527 93.863C177.133 94.1982 177.853 94.2679 178.529 94.0565C179.205 93.8452 179.783 93.3703 180.134 92.7363L180.736 91.6496ZM183.135 79.4832C181.475 78.564 179.259 80.6081 178.296 82.3468C177.814 83.2161 177.748 84.3153 177.441 85.8491L177.134 87.3829L181.698 89.9109C182.18 89.0415 183.317 87.9673 184.521 85.7939C185.724 83.6206 185.212 80.6332 183.135 79.4832Z" fill="#2B3237"/>
</g>
<g clip-path="url(#clip13_2_114)">
<path d="M208.646 42.4122L204.638 39.071L203.843 40.0251C203.379 40.5818 203.145 41.2918 203.193 41.9987C203.24 42.7057 203.566 43.3518 204.097 43.7948C204.629 44.2379 205.323 44.4417 206.027 44.3613C206.731 44.281 207.387 43.9231 207.851 43.3664L208.646 42.4122ZM213.291 30.9141C211.833 29.6991 209.272 31.2899 207.999 32.8166C207.363 33.5799 207.091 34.6469 206.501 36.0956L205.911 37.5444L209.919 40.8856C210.555 40.1223 211.874 39.2811 213.465 37.3728C215.056 35.4646 215.114 32.4341 213.291 30.9141Z" fill="#2B3237"/>
</g>
<g clip-path="url(#clip14_2_114)">
<path d="M298.67 34.8888L302.401 31.2408L301.533 30.3526C301.026 29.8344 300.344 29.5295 299.635 29.5052C298.927 29.4808 298.251 29.7389 297.757 30.2226C297.262 30.7064 296.989 31.3762 296.997 32.0847C297.006 32.7932 297.295 33.4824 297.802 34.0006L298.67 34.8888ZM309.637 40.6771C310.994 39.3505 309.671 36.6409 308.282 35.2198C307.587 34.5092 306.553 34.1303 305.172 33.3961L303.791 32.6619L300.06 36.3099C300.754 37.0205 301.457 38.4179 303.194 40.1943C304.931 41.9707 307.94 42.3366 309.637 40.6771Z" fill="#2B3237"/>
</g>
<g clip-path="url(#clip15_2_114)">
<path d="M328.111 81.8039L333.083 80.2194L332.706 79.0359C332.485 78.3453 332.012 77.7665 331.391 77.4268C330.769 77.0871 330.049 77.0142 329.39 77.2244C328.731 77.4345 328.186 77.9103 327.875 78.5472C327.565 79.1841 327.514 79.9298 327.734 80.6204L328.111 81.8039ZM335.312 91.8999C337.12 91.3237 337.154 88.3088 336.551 86.4151C336.249 85.4683 335.495 84.6655 334.591 83.3893L333.686 82.1131L328.714 83.6976C329.016 84.6444 329.017 86.2087 329.771 88.5758C330.526 90.9428 333.05 92.6207 335.312 91.8999Z" fill="#2B3237"/>
</g>
<g clip-path="url(#clip16_2_114)">
<path d="M250.139 12.018L250.182 6.8001L248.94 6.7897C248.216 6.78363 247.518 7.05268 247.002 7.53767C246.485 8.02265 246.191 8.68385 246.186 9.37579C246.18 10.0677 246.462 10.7337 246.971 11.2273C247.479 11.7209 248.172 12.0016 248.897 12.0076L250.139 12.018ZM261.976 8.32202C261.992 6.42459 259.138 5.45191 257.15 5.43527C256.157 5.42695 255.159 5.89298 253.664 6.35486L252.17 6.81674L252.126 12.0347C253.12 12.043 254.606 12.5298 257.091 12.5506C259.575 12.5714 261.956 10.6957 261.976 8.32202Z" fill="#2B3237"/>
</g>
<g clip-path="url(#clip17_2_114)">
<path d="M162.392 115.45L167.472 117.47L167.013 118.624C166.745 119.298 166.221 119.838 165.555 120.125C164.889 120.411 164.137 120.422 163.463 120.154C162.79 119.887 162.25 119.362 161.963 118.696C161.676 118.031 161.666 117.278 161.933 116.605L162.392 115.45ZM170.449 105.947C172.296 106.681 172.162 109.708 171.428 111.556C171.061 112.479 170.232 113.219 169.219 114.421L168.206 115.623L163.127 113.603C163.494 112.68 163.583 111.111 164.501 108.802C165.419 106.493 168.138 105.028 170.449 105.947Z" fill="white"/>
</g>
<path d="M110.6 225.8C107.133 225.8 104.133 223.8 101.6 219.8C99.0667 215.933 97.2667 209.6 96.2 200.8C96.0667 200.133 96 199.333 96 198.4C96 197.333 96 196.267 96 195.2C96 190.8 96.2667 185.267 96.8 178.6C97.3333 171.8 98 164.333 98.8 156.2C99.6 148.067 100.333 139.733 101 131.2C101.8 122.533 102.467 114.067 103 105.8C103.533 97.5333 103.8 90 103.8 83.2C103.8 74.8 103.267 68 102.2 62.8C101.133 57.6 99.2 55 96.4 55C94.6667 55 92.9333 56 91.2 58C89.6 59.8667 88.1333 62 86.8 64.4C85.6 66.6667 84.6 68.5333 83.8 70C83.1333 71.3333 82.7333 71.5333 82.6 70.6C82.4667 70.0667 82.3333 69.6 82.2 69.2C82.2 68.6667 82.2 68.1333 82.2 67.6C82.2 65.0667 82.8 62.4 84 59.6C85.2 56.8 86.8667 54.4667 89 52.6C91.1333 50.6 93.5333 49.6 96.2 49.6C96.7333 49.6 97.2 49.6667 97.6 49.8C98 49.8 98.4 49.8667 98.8 50C104 51.3333 107.533 55.6 109.4 62.8C111.267 70 112.2 78.7333 112.2 89C112.2 96.7333 111.8 104.933 111 113.6C110.333 122.267 109.533 131 108.6 139.8C107.8 148.467 107 156.733 106.2 164.6C105.533 172.467 105.2 179.4 105.2 185.4C105.2 187.133 105.2 188.8 105.2 190.4C105.333 191.867 105.467 193.267 105.6 194.6C106.667 203 108.133 208.867 110 212.2C111.867 215.667 114 217.4 116.4 217.4C119.067 217.4 121.8 215.933 124.6 213C127.533 210.067 130.4 206.4 133.2 202C136 197.6 138.533 193.2 140.8 188.8C143.867 183.067 146.667 176.333 149.2 168.6C151.733 160.867 154 153 156 145C158.133 137 159.8 129.667 161 123C159.667 120.733 158.867 118.4 158.6 116C158.333 113.6 158.2 110.533 158.2 106.8C158.2 102.8 158.933 99.6667 160.4 97.4C161.867 95.1333 163.4 94 165 94C167.4 94 169 96 169.8 100C171.267 106.667 172.733 113.733 174.2 121.2C175.667 128.533 177.267 135.733 179 142.8C180.867 149.867 183 156.4 185.4 162.4C190.333 174.267 194.867 182.8 199 188C203.133 193.067 206.933 195.6 210.4 195.6C214 195.6 217.133 193.333 219.8 188.8C222.6 184.133 224.933 178.067 226.8 170.6C228.667 163 230.067 154.8 231 146C231.933 137.067 232.4 128.333 232.4 119.8C232.4 112.733 232.067 106.133 231.4 100C230.867 93.8667 229.867 88.8667 228.4 85C227.867 83.4 227.467 81.7333 227.2 80C226.933 78.2667 226.8 76.6667 226.8 75.2C226.8 73.3333 227 71.7333 227.4 70.4C227.933 69.0667 228.667 68.4 229.6 68.4C230.667 68.4 231.733 69.2 232.8 70.8C234.267 72.6667 235.6 75.2667 236.8 78.6C238.133 81.8 239.267 84.6 240.2 87C241.267 89.6667 242.667 92.9333 244.4 96.8C246.133 100.533 247.933 104 249.8 107.2C251.8 110.267 253.733 112.133 255.6 112.8C255.867 112.933 256 113.2 256 113.6C256 114.4 255.4 115.067 254.2 115.6C253 116.133 252.133 116.333 251.6 116.2C248.533 114.733 245.933 113.2 243.8 111.6C241.8 109.867 239.467 106.733 236.8 102.2C236.933 104.6 237 107.067 237 109.6C237 112 237 114.4 237 116.8C237 123.733 236.733 130.667 236.2 137.6C235.8 144.533 234.933 151.533 233.6 158.6C230.667 173.933 226.933 184.867 222.4 191.4C218 197.933 213.333 201.2 208.4 201.2C204.4 201.2 200.4 199.467 196.4 196C192.533 192.4 188.933 187.667 185.6 181.8C182.267 175.933 179.4 169.4 177 162.2C174.867 155.267 173.067 148.933 171.6 143.2C170.133 137.333 169 132.2 168.2 127.8C166.067 137.4 163.267 146.933 159.8 156.4C156.467 165.867 152.733 174.8 148.6 183.2C144.467 191.467 140.133 198.8 135.6 205.2C131.2 211.6 126.8 216.6 122.4 220.2C118.133 223.933 114.2 225.8 110.6 225.8ZM250.938 201.4C248.804 201.4 247.004 200.267 245.538 198C244.471 196.133 243.938 193.933 243.938 191.4C243.938 187.8 244.738 183.733 246.338 179.2C247.938 174.667 250.071 170.267 252.738 166C255.538 161.733 258.604 158.133 261.938 155.2C265.404 152.133 268.938 150.333 272.538 149.8C273.871 149.667 275.471 150 277.338 150.8C279.204 151.6 280.738 152.6 281.938 153.8C282.204 152.467 282.404 151.2 282.538 150C282.671 148.667 282.738 147.4 282.738 146.2C282.738 142.467 282.138 139.133 280.938 136.2C279.738 133.267 277.604 131.333 274.538 130.4C273.338 130 272.004 129.8 270.538 129.8C269.738 129.8 268.871 129.933 267.938 130.2C267.004 130.333 266.004 130.733 264.938 131.4C263.871 131.933 262.804 132.8 261.738 134C260.671 135.067 259.938 136.067 259.538 137C259.271 137.533 258.604 138.733 257.538 140.6C256.471 142.333 255.604 143.133 254.938 143C254.404 142.867 254.138 142.4 254.138 141.6C254.138 141.2 254.271 140.6 254.538 139.8C255.338 137.267 256.871 135.133 259.138 133.4C261.404 131.533 263.871 130.067 266.538 129C269.204 127.8 271.404 127.133 273.138 127C273.538 127 273.938 127 274.338 127C274.738 126.867 275.071 126.8 275.338 126.8C277.471 126.8 279.404 127.133 281.138 127.8C283.004 128.333 284.471 129.067 285.538 130C287.271 131.333 288.671 133.067 289.738 135.2C290.804 137.2 291.338 139.733 291.338 142.8C291.338 143.733 291.271 144.733 291.138 145.8C291.004 146.867 290.804 147.933 290.538 149C290.138 151.133 289.604 153.867 288.938 157.2C288.404 160.4 287.804 163.733 287.138 167.2C286.604 170.667 286.138 173.867 285.738 176.8C285.471 179.6 285.338 181.6 285.338 182.8C285.338 184.133 285.738 185.667 286.538 187.4C287.471 189 288.671 189.8 290.138 189.8C290.938 189.8 291.804 189.4 292.738 188.6C293.804 187.8 294.871 186.467 295.938 184.6C296.604 183.533 297.204 183 297.738 183C298.404 183 298.738 183.4 298.738 184.2C298.738 185.267 298.204 186.533 297.138 188C294.604 191.6 291.404 193.4 287.538 193.4C284.338 193.4 282.071 192.067 280.738 189.4C278.471 185 277.338 181.067 277.338 177.6C277.338 174 277.271 171.533 277.138 170.2C276.471 171.8 275.204 174.333 273.338 177.8C271.471 181.133 269.271 184.667 266.738 188.4C264.204 192 261.538 195.067 258.738 197.6C255.938 200.133 253.338 201.4 250.938 201.4ZM254.138 195.4C255.471 195.4 257.004 194.733 258.738 193.4C260.604 192.067 262.538 190 264.538 187.2C267.204 183.333 269.671 179 271.938 174.2C274.204 169.4 276.271 164.733 278.138 160.2C276.538 156.333 274.538 154.4 272.138 154.4C270.004 154.4 267.738 155.533 265.338 157.8C262.938 160.067 260.671 162.667 258.538 165.6C255.871 169.6 253.738 173.6 252.138 177.6C250.671 181.6 249.938 185 249.938 187.8C249.938 192.867 251.338 195.4 254.138 195.4ZM339.147 205.6C337.414 205.6 335.88 204.533 334.547 202.4C333.214 200.133 332.547 195.867 332.547 189.6C332.547 184.667 332.947 179.267 333.747 173.4C334.547 167.4 335.414 161.467 336.347 155.6C337.414 149.733 338.347 144.533 339.147 140C339.947 135.333 340.347 131.933 340.347 129.8C340.347 126.067 339.214 124.2 336.947 124.2C334.814 124.2 332.614 125.267 330.347 127.4C328.214 129.533 326.147 132.133 324.147 135.2C322.28 138.267 320.614 141.267 319.147 144.2C317.814 147 316.947 149.067 316.547 150.4C314.68 155.6 313.347 160.8 312.547 166C311.747 171.067 311.347 176.333 311.347 181.8C311.347 184.067 311.414 186.4 311.547 188.8C311.814 191.2 312.014 193.667 312.147 196.2C312.414 197.533 312.014 199.2 310.947 201.2C310.014 203.067 308.88 204 307.547 204C306.614 204 305.814 203.4 305.147 202.2C304.48 201 304.014 199.933 303.747 199C303.214 197.4 302.814 195.733 302.547 194C302.28 192.133 302.014 190.533 301.747 189.2C300.814 183.733 299.947 178.2 299.147 172.6C298.347 166.867 297.214 161.333 295.747 156C295.347 154.533 294.814 153 294.147 151.4C293.614 149.667 292.747 148.267 291.547 147.2C291.28 146.933 290.88 146.667 290.347 146.4C289.814 146 289.547 145.667 289.547 145.4C289.547 144.867 290.28 144.6 291.747 144.6C293.347 144.6 294.947 145.4 296.547 147C298.147 148.6 299.614 150.733 300.947 153.4C302.547 156.733 303.88 160.267 304.947 164C306.147 167.733 307.08 170.733 307.747 173C308.547 168.2 309.414 163.933 310.347 160.2C311.28 157 312.547 153.2 314.147 148.8C315.747 144.267 317.747 139.867 320.147 135.6C322.547 131.2 325.414 127.6 328.747 124.8C332.08 121.867 335.947 120.4 340.347 120.4C346.747 120.4 349.947 124.133 349.947 131.6C349.947 135.467 349.28 139.733 347.947 144.4C346.614 148.933 345.147 153.133 343.547 157C342.08 160.867 341.08 163.533 340.547 165C339.88 166.867 339.147 169.4 338.347 172.6C337.68 175.8 337.08 179.133 336.547 182.6C336.147 186.067 335.947 189.267 335.947 192.2C335.947 194.733 336.214 196.867 336.747 198.6C337.414 200.2 338.414 201 339.747 201C341.08 201 342.28 200.4 343.347 199.2C344.414 197.867 345.28 196.667 345.947 195.6C346.747 194.533 347.147 194.333 347.147 195C347.414 197 346.68 199.267 344.947 201.8C343.347 204.333 341.414 205.6 339.147 205.6ZM360.573 212.4C357.373 212.4 354.973 211 353.373 208.2C351.773 205.533 350.973 202.133 350.973 198C350.973 195.067 351.573 191.4 352.773 187C353.973 182.6 355.64 178 357.773 173.2C359.907 168.4 362.307 163.933 364.973 159.8C367.64 155.533 370.373 152.133 373.173 149.6C376.107 146.933 378.973 145.6 381.773 145.6C384.04 145.6 385.64 146.467 386.573 148.2C387.64 149.8 388.173 151.533 388.173 153.4C388.173 155 387.84 156.467 387.173 157.8C386.64 159 385.84 159.6 384.773 159.6C383.707 159.6 382.907 159.133 382.373 158.2C381.973 157.133 381.573 156.067 381.173 155C380.907 153.933 380.173 153.4 378.973 153.4C376.573 153.4 374.173 154.933 371.773 158C369.373 161.067 367.173 164.933 365.173 169.6C363.173 174.267 361.573 179.133 360.373 184.2C359.173 189.133 358.573 193.533 358.573 197.4C358.573 200.2 358.907 202.4 359.573 204C360.373 205.733 361.64 206.6 363.373 206.6C365.64 206.6 367.907 205.2 370.173 202.4C372.573 199.467 374.907 195.733 377.173 191.2C379.44 186.533 381.507 181.667 383.373 176.6C385.373 171.533 387.04 166.8 388.373 162.4C389.84 157.867 390.973 154.267 391.773 151.6C392.84 142.267 394.107 132.867 395.573 123.4C397.173 113.933 399.507 104.733 402.573 95.8C402.973 94.3333 403.573 93.0667 404.373 92C405.307 90.9333 406.24 90.4 407.173 90.4C408.24 90.4 409.107 91.1333 409.773 92.6C410.573 94.0667 410.973 95.7333 410.973 97.6C410.973 99.0667 410.707 100.6 410.173 102.2C409.64 103.8 408.973 105.933 408.173 108.6C407.24 111.8 406.04 116.067 404.573 121.4C403.24 126.6 401.84 132.533 400.373 139.2C398.907 145.733 397.64 152.733 396.573 160.2C395.64 167.533 395.173 174.867 395.173 182.2C395.173 187.8 395.573 191.733 396.373 194C397.173 196.267 398.24 197.4 399.573 197.4C401.04 197.4 402.64 196.467 404.373 194.6C406.24 192.733 408.04 190.467 409.773 187.8C411.64 185.133 413.307 182.467 414.773 179.8C416.24 177 417.373 174.8 418.173 173.2C419.64 170.267 420.773 168.8 421.573 168.8C422.107 168.8 422.373 169.4 422.373 170.6C422.373 171.533 422.173 172.533 421.773 173.6C420.973 175.333 420.44 176.667 420.173 177.6C419.907 178.4 419.573 179.2 419.173 180C418.907 180.8 418.24 182.067 417.173 183.8C416.24 185.4 414.773 187.6 412.773 190.4C410.773 193.067 408.507 195.533 405.973 197.8C403.44 199.933 400.907 201 398.373 201C395.84 201 393.907 199.933 392.573 197.8C391.373 195.667 390.573 192.933 390.173 189.6C389.907 186.133 389.773 182.6 389.773 179C389.773 174.6 389.973 169.933 390.373 165C389.44 168.2 388.173 172 386.573 176.4C384.973 180.667 383.173 185 381.173 189.4C379.173 193.8 377.04 197.8 374.773 201.4C372.907 204.333 370.84 206.867 368.573 209C366.307 211.267 363.64 212.4 360.573 212.4ZM420.934 201.4C418.534 201.4 416.801 200.4 415.734 198.4C414.668 196.267 414.134 193.8 414.134 191C414.134 187.4 414.734 183.2 415.934 178.4C417.268 173.6 419.001 168.667 421.134 163.6C423.268 158.4 425.668 153.667 428.334 149.4C431.134 145 434.068 141.467 437.134 138.8C440.201 136 443.201 134.6 446.134 134.6C448.801 134.6 451.068 135.8 452.934 138.2C454.934 140.467 455.934 143.067 455.934 146C455.934 147.733 455.668 149.2 455.134 150.4C454.601 151.467 454.001 152 453.334 152C452.801 152 452.334 151.6 451.934 150.8C450.601 147.733 449.134 145.533 447.534 144.2C446.068 142.867 444.534 142.2 442.934 142.2C440.268 142.2 437.601 143.733 434.934 146.8C432.401 149.733 430.334 153.133 428.734 157C427.401 159.933 426.134 163.467 424.934 167.6C423.868 171.6 422.934 175.6 422.134 179.6C421.468 183.467 421.134 186.667 421.134 189.2C421.134 193.733 422.201 196 424.334 196C427.001 196 430.401 193.067 434.534 187.2C437.601 182.933 440.334 178 442.734 172.4C445.268 166.8 447.401 161.933 449.134 157.8C449.801 156.467 450.534 155.6 451.334 155.2C452.134 154.8 452.868 154.6 453.534 154.6C455.134 154.6 456.134 155.267 456.534 156.6C457.068 157.933 457.334 159.067 457.334 160C457.334 163.467 457.001 166.6 456.334 169.4C455.668 172.067 455.334 175.333 455.334 179.2C455.334 182 455.534 184.6 455.934 187C456.468 189.267 457.334 190.4 458.534 190.4C460.001 190.4 461.868 188.533 464.134 184.8C464.668 183.733 465.468 183.2 466.534 183.2C467.734 183.2 468.334 183.8 468.334 185C468.334 186.733 467.134 188.6 464.734 190.6C462.334 192.467 459.934 193.4 457.534 193.4C454.334 193.4 452.068 192.067 450.734 189.4C448.468 185 447.334 181.067 447.334 177.6C447.334 174 447.268 171.533 447.134 170.2C446.468 171.8 445.201 174.333 443.334 177.8C441.468 181.133 439.268 184.667 436.734 188.4C434.201 192 431.534 195.067 428.734 197.6C425.934 200.133 423.334 201.4 420.934 201.4ZM493.073 213C488.807 213 485.54 211 483.273 207C481.007 203.133 479.873 198.867 479.873 194.2C479.873 189.8 480.607 185.2 482.073 180.4C483.54 175.6 485.34 170.867 487.473 166.2C489.74 161.533 492.073 157.267 494.473 153.4C492.073 154.333 489.807 154.8 487.673 154.8C486.607 154.8 485.673 154.667 484.873 154.4C484.073 154.133 483.407 153.933 482.873 153.8C482.207 155.4 481.007 158.067 479.273 161.8C477.673 165.533 475.94 169.467 474.073 173.6C472.34 177.6 470.807 181 469.473 183.8C467.34 188.333 465.473 190.6 463.873 190.6C463.073 190.6 462.673 190.067 462.673 189C462.673 188.2 463.007 187.133 463.673 185.8C466.74 180.067 469.607 174.4 472.273 168.8C475.073 163.2 477.607 157.8 479.873 152.6C479.607 151.933 479.34 151.067 479.073 150C478.807 148.8 478.673 147.533 478.673 146.2C478.673 144.733 478.807 143.2 479.073 141.6C479.473 139.867 480.007 138.2 480.673 136.6C481.073 135.667 481.807 134.333 482.873 132.6C483.94 130.733 485.14 129.067 486.473 127.6C487.807 126 489.073 125.2 490.273 125.2C492.54 125.2 493.673 126.4 493.673 128.8C493.673 131.067 492.94 133.667 491.473 136.6C490.14 139.533 488.74 142.267 487.273 144.8C485.807 147.2 485.073 149 485.073 150.2C485.073 151.267 485.607 151.8 486.673 151.8C488.14 151.8 489.94 151.067 492.073 149.6C494.34 148 496.14 146.533 497.473 145.2C498.14 144.533 499.207 143.533 500.673 142.2C502.14 140.733 503.54 140 504.873 140C506.207 140 507.073 140.4 507.473 141.2C508.007 142 508.273 142.933 508.273 144C508.273 145.2 507.74 146.733 506.673 148.6C505.607 150.333 504.34 152.067 502.873 153.8C501.54 155.533 500.407 157 499.473 158.2C497.607 161 495.473 164.533 493.073 168.8C490.673 173.067 488.607 177.667 486.873 182.6C485.14 187.4 484.273 192 484.273 196.4C484.273 199.333 485.007 202.4 486.473 205.6C487.94 208.8 489.94 210.4 492.473 210.4C494.74 210.4 497.14 209.2 499.673 206.8C502.34 204.4 504.807 201.533 507.073 198.2C509.473 194.867 511.54 191.667 513.273 188.6C515.14 185.533 516.407 183.4 517.073 182.2C517.34 181.533 517.807 180.733 518.473 179.8C519.14 178.733 519.94 178.2 520.873 178.2C521.673 178.2 522.073 178.6 522.073 179.4C522.073 180.067 521.873 180.867 521.473 181.8C521.207 182.6 520.94 183.333 520.673 184C519.473 186.8 518.007 189.733 516.273 192.8C514.54 195.867 513.34 197.933 512.673 199C510.807 202.067 508.007 205.133 504.273 208.2C500.673 211.4 496.94 213 493.073 213ZM535.641 205.6C530.841 205.6 526.641 202.8 523.041 197.2C519.574 191.467 517.841 182.467 517.841 170.2C517.841 162.2 518.841 155.8 520.841 151C522.841 146.067 525.307 142.467 528.241 140.2C531.174 137.933 533.974 136.8 536.641 136.8C539.307 136.8 541.574 137.733 543.441 139.6C545.307 141.333 546.241 143.867 546.241 147.2C546.241 150.4 545.307 153.8 543.441 157.4C541.574 160.867 539.307 164.067 536.641 167C534.107 169.8 531.574 171.667 529.041 172.6C528.507 172.867 527.841 173 527.041 173C526.507 173 526.241 172.8 526.241 172.4C526.241 171.333 527.307 170.133 529.441 168.8C532.107 166.933 534.641 164.133 537.041 160.4C539.441 156.533 540.641 153.133 540.641 150.2C540.641 148.467 540.241 147.133 539.441 146.2C538.641 145.133 537.707 144.6 536.641 144.6C534.641 144.6 532.441 146.2 530.041 149.4C527.774 152.467 526.107 157.8 525.041 165.4C524.774 167.533 524.507 169.6 524.241 171.6C524.107 173.467 524.041 175.333 524.041 177.2C524.041 184.667 525.174 190.533 527.441 194.8C529.707 198.933 532.707 201 536.441 201C539.641 201 543.241 199.133 547.241 195.4C551.241 191.533 555.174 185.533 559.041 177.4C559.974 175.267 561.041 174.2 562.241 174.2C563.041 174.2 563.441 174.733 563.441 175.8C563.441 176.733 563.174 177.733 562.641 178.8C559.174 187.333 554.974 193.933 550.041 198.6C545.107 203.267 540.307 205.6 535.641 205.6Z" fill="#0E376F"/>
<g clip-path="url(#clip18_2_114)">
<path d="M341.89 106.078L336.743 107.92L336.325 106.75C336.08 106.068 336.117 105.316 336.427 104.661C336.737 104.006 337.295 103.5 337.977 103.256C338.66 103.012 339.411 103.049 340.066 103.358C340.722 103.668 341.227 104.226 341.471 104.908L341.89 106.078ZM342.126 118.535C340.254 119.205 338.354 116.844 337.684 114.973C337.349 114.037 337.482 112.934 337.448 111.363L337.413 109.792L342.56 107.95C342.895 108.885 343.865 110.122 344.702 112.461C345.54 114.8 344.467 117.697 342.126 118.535Z" fill="#2B3237"/>
</g>
<g clip-path="url(#clip19_2_114)">
<path d="M351.487 163.081L346.085 163.923L345.894 162.696C345.782 161.979 345.96 161.248 346.387 160.663C346.815 160.077 347.457 159.686 348.174 159.574C348.89 159.462 349.621 159.64 350.207 160.067C350.792 160.495 351.184 161.137 351.295 161.854L351.487 163.081ZM349.377 175.36C347.413 175.667 345.99 172.991 345.684 171.027C345.531 170.045 345.869 168.987 346.13 167.437L346.392 165.887L351.793 165.045C351.946 166.027 352.667 167.424 353.049 169.879C353.432 172.334 351.834 174.977 349.377 175.36Z" fill="#2B3237"/>
</g>
<g clip-path="url(#clip20_2_114)">
<path d="M356.487 219.081L351.085 219.923L350.894 218.696C350.782 217.979 350.96 217.248 351.387 216.663C351.815 216.077 352.457 215.686 353.174 215.574C353.89 215.462 354.621 215.64 355.207 216.067C355.792 216.495 356.184 217.137 356.295 217.854L356.487 219.081ZM354.377 231.36C352.413 231.667 350.99 228.991 350.684 227.027C350.531 226.045 350.869 224.987 351.13 223.437L351.392 221.887L356.793 221.045C356.946 222.027 357.667 223.424 358.049 225.879C358.432 228.334 356.834 230.977 354.377 231.36Z" fill="#2B3237"/>
</g>
<g clip-path="url(#clip21_2_114)">
<path d="M364.46 274.166L359.276 275.902L358.882 274.724C358.651 274.036 358.704 273.286 359.027 272.637C359.35 271.988 359.918 271.494 360.605 271.264C361.293 271.034 362.044 271.086 362.692 271.41C363.341 271.733 363.835 272.301 364.065 272.988L364.46 274.166ZM364.439 286.625C362.554 287.256 360.702 284.857 360.071 282.972C359.756 282.03 359.911 280.93 359.909 279.358L359.907 277.787L365.091 276.051C365.406 276.994 366.351 278.249 367.14 280.606C367.929 282.962 366.797 285.835 364.439 286.625Z" fill="#2B3237"/>
</g>
<g clip-path="url(#clip22_2_114)">
<path d="M396.05 305.533L398.166 310.573L397.021 311.054C396.352 311.334 395.6 311.338 394.929 311.064C394.258 310.79 393.723 310.26 393.443 309.592C393.162 308.923 393.158 308.171 393.433 307.5C393.707 306.829 394.237 306.294 394.905 306.013L396.05 305.533ZM408.477 304.628C409.246 306.461 406.991 308.486 405.158 309.255C404.242 309.64 403.133 309.566 401.566 309.685L399.999 309.804L397.883 304.763C398.8 304.379 399.982 303.343 402.273 302.382C404.564 301.42 407.514 302.335 408.477 304.628Z" fill="#2B3237"/>
</g>
<g clip-path="url(#clip23_2_114)">
<path d="M442.905 275.939L446.354 280.179L445.39 280.963C444.828 281.421 444.107 281.636 443.386 281.562C442.664 281.488 442.002 281.13 441.545 280.568C441.088 280.005 440.872 279.284 440.947 278.563C441.021 277.842 441.378 277.18 441.941 276.723L442.905 275.939ZM454.573 271.572C455.828 273.114 454.234 275.692 452.692 276.946C451.921 277.573 450.836 277.815 449.366 278.37L447.896 278.925L444.447 274.684C445.218 274.057 446.061 272.731 447.988 271.163C449.916 269.595 453.004 269.643 454.573 271.572Z" fill="#2B3237"/>
</g>
<g clip-path="url(#clip24_2_114)">
<path d="M481.937 237.593L486.378 240.78L485.654 241.789C485.231 242.378 484.592 242.775 483.876 242.893C483.161 243.011 482.428 242.839 481.839 242.417C481.25 241.994 480.854 241.355 480.736 240.639C480.618 239.924 480.79 239.191 481.212 238.602L481.937 237.593ZM492.051 230.318C493.666 231.477 492.804 234.382 491.646 235.997C491.066 236.804 490.083 237.322 488.81 238.244L487.537 239.165L483.096 235.978C483.675 235.171 484.141 233.67 485.589 231.651C487.038 229.632 490.03 228.868 492.051 230.318Z" fill="#2B3237"/>
</g>
<g clip-path="url(#clip25_2_114)">
<path d="M510.433 191.025L515.336 193.443L514.786 194.557C514.466 195.207 513.9 195.703 513.213 195.936C512.527 196.169 511.776 196.12 511.126 195.799C510.476 195.479 509.98 194.913 509.747 194.226C509.514 193.54 509.563 192.789 509.884 192.139L510.433 191.025ZM519.221 182.193C521.004 183.073 520.629 186.079 519.75 187.862C519.311 188.754 518.425 189.425 517.32 190.542L516.215 191.66L511.312 189.242C511.752 188.35 511.966 186.794 513.065 184.565C514.164 182.337 516.991 181.093 519.221 182.193Z" fill="#2B3237"/>
</g>
<g clip-path="url(#clip26_2_114)">
<path d="M533.161 140.66L538.366 142.331L537.987 143.514C537.765 144.204 537.278 144.778 536.634 145.109C535.989 145.441 535.239 145.502 534.549 145.281C533.859 145.059 533.285 144.572 532.953 143.928C532.622 143.283 532.56 142.533 532.782 141.843L533.161 140.66ZM540.556 130.632C542.449 131.24 542.52 134.269 541.912 136.162C541.609 137.108 540.832 137.903 539.903 139.17L538.974 140.438L533.769 138.767C534.073 137.821 534.055 136.249 534.815 133.884C535.574 131.518 538.188 129.872 540.556 130.632Z" fill="#2B3237"/>
</g>
<g clip-path="url(#clip27_2_114)">
<path d="M553.161 91.6599L558.366 93.3307L557.987 94.5136C557.765 95.2038 557.278 95.7778 556.634 96.1091C555.989 96.4405 555.239 96.5022 554.549 96.2807C553.859 96.0591 553.285 95.5724 552.953 94.9277C552.622 94.283 552.56 93.533 552.782 92.8428L553.161 91.6599ZM560.556 81.6325C562.449 82.2401 562.52 85.2693 561.912 87.162C561.609 88.1083 560.832 88.9028 559.903 90.1704L558.974 91.438L553.769 89.7672C554.073 88.8208 554.055 87.2494 554.815 84.8836C555.574 82.5177 558.188 80.8724 560.556 81.6325Z" fill="#2B3237"/>
</g>
<g clip-path="url(#clip28_2_114)">
<path d="M341.707 136.141L346.884 135.486L346.728 134.253C346.637 133.534 346.277 132.879 345.728 132.432C345.178 131.985 344.483 131.783 343.797 131.87C343.11 131.956 342.488 132.325 342.067 132.895C341.646 133.465 341.46 134.189 341.551 134.908L341.707 136.141ZM346.954 147.377C348.836 147.139 349.418 144.18 349.169 142.208C349.044 141.223 348.449 140.296 347.791 138.877L347.134 137.458L341.957 138.112C342.081 139.098 341.798 140.637 342.11 143.101C342.421 145.566 344.599 147.675 346.954 147.377Z" fill="#2B3237"/>
</g>
<g clip-path="url(#clip29_2_114)">
<path d="M348.44 191.777L353.617 191.122L353.461 189.89C353.37 189.171 353.01 188.516 352.46 188.069C351.911 187.622 351.216 187.419 350.53 187.506C349.843 187.593 349.221 187.962 348.8 188.532C348.379 189.101 348.193 189.826 348.284 190.545L348.44 191.777ZM353.686 203.013C355.569 202.775 356.151 199.817 355.902 197.845C355.777 196.859 355.182 195.933 354.524 194.513L353.866 193.094L348.689 193.749C348.814 194.735 348.531 196.273 348.842 198.738C349.154 201.202 351.331 203.311 353.686 203.013Z" fill="#2B3237"/>
</g>
<g clip-path="url(#clip30_2_114)">
<path d="M354.44 248.777L359.617 248.122L359.461 246.89C359.37 246.171 359.01 245.516 358.46 245.069C357.911 244.622 357.216 244.419 356.53 244.506C355.843 244.593 355.221 244.962 354.8 245.532C354.379 246.101 354.193 246.826 354.284 247.545L354.44 248.777ZM359.686 260.013C361.569 259.775 362.151 256.817 361.902 254.845C361.777 253.859 361.182 252.933 360.524 251.513L359.866 250.094L354.689 250.749C354.814 251.735 354.531 253.273 354.842 255.738C355.154 258.202 357.331 260.311 359.686 260.013Z" fill="#2B3237"/>
</g>
<g clip-path="url(#clip31_2_114)">
<path d="M370.634 303.629L374.032 299.669L373.09 298.86C372.54 298.388 371.833 298.144 371.126 298.181C370.418 298.219 369.767 298.535 369.317 299.06C368.866 299.585 368.653 300.276 368.723 300.981C368.793 301.686 369.142 302.348 369.692 302.82L370.634 303.629ZM382.065 308.436C383.301 306.996 381.747 304.413 380.238 303.118C379.484 302.471 378.421 302.184 376.981 301.573L375.541 300.963L372.143 304.923C372.897 305.57 373.719 306.901 375.605 308.518C377.49 310.136 380.519 310.238 382.065 308.436Z" fill="#2B3237"/>
</g>
<g clip-path="url(#clip32_2_114)">
<path d="M423.893 297.956L421.125 293.532L420.072 294.191C419.457 294.576 419.014 295.177 418.839 295.864C418.664 296.551 418.772 297.266 419.139 297.852C419.506 298.439 420.102 298.849 420.796 298.992C421.49 299.135 422.225 298.999 422.84 298.615L423.893 297.956ZM431.887 288.476C430.881 286.868 427.951 287.581 426.267 288.636C425.424 289.163 424.833 290.092 423.821 291.285L422.809 292.478L425.577 296.901C426.42 296.374 427.935 295.986 430.041 294.668C432.147 293.35 433.146 290.488 431.887 288.476Z" fill="#2B3237"/>
</g>
<g clip-path="url(#clip33_2_114)">
<path d="M466.855 262.24L463.242 258.475L462.346 259.335C461.823 259.837 461.511 260.516 461.48 261.224C461.449 261.932 461.701 262.61 462.18 263.109C462.659 263.609 463.326 263.888 464.035 263.886C464.743 263.885 465.435 263.602 465.958 263.1L466.855 262.24ZM472.746 251.328C471.432 249.959 468.71 251.256 467.276 252.632C466.559 253.32 466.17 254.35 465.423 255.724L464.676 257.099L468.289 260.864C469.006 260.176 470.41 259.486 472.203 257.766C473.995 256.046 474.389 253.041 472.746 251.328Z" fill="#2B3237"/>
</g>
<g clip-path="url(#clip34_2_114)">
<path d="M502.714 217.562L498.472 214.523L497.748 215.532C497.326 216.122 497.145 216.847 497.244 217.548C497.343 218.25 497.715 218.87 498.278 219.273C498.84 219.676 499.547 219.829 500.244 219.697C500.94 219.566 501.568 219.161 501.99 218.571L502.714 217.562ZM506.504 205.755C504.962 204.649 502.524 206.423 501.366 208.039C500.788 208.847 500.594 209.931 500.112 211.419L499.629 212.907L503.871 215.946C504.45 215.138 505.704 214.203 507.151 212.183C508.598 210.164 508.434 207.137 506.504 205.755Z" fill="#2B3237"/>
</g>
<g clip-path="url(#clip35_2_114)">
<path d="M527.569 168.487L522.861 166.236L522.325 167.357C522.013 168.011 521.961 168.757 522.182 169.43C522.402 170.104 522.877 170.65 523.501 170.948C524.125 171.246 524.848 171.273 525.511 171.021C526.173 170.77 526.721 170.261 527.034 169.607L527.569 168.487ZM529.236 156.198C527.524 155.38 525.433 157.553 524.576 159.347C524.148 160.243 524.148 161.344 523.933 162.894L523.718 164.443L528.426 166.693C528.855 165.797 529.925 164.656 530.997 162.415C532.068 160.173 531.377 157.222 529.236 156.198Z" fill="#2B3237"/>
</g>
<g clip-path="url(#clip36_2_114)">
<path d="M548.706 116.623L543.998 114.373L543.462 115.494C543.15 116.148 543.098 116.894 543.319 117.567C543.539 118.24 544.014 118.786 544.638 119.085C545.262 119.383 545.985 119.409 546.648 119.158C547.31 118.906 547.858 118.398 548.17 117.744L548.706 116.623ZM550.373 104.335C548.661 103.517 546.57 105.69 545.713 107.483C545.285 108.38 545.284 109.481 545.07 111.03L544.855 112.58L549.563 114.83C549.992 113.933 551.062 112.793 552.134 110.551C553.205 108.31 552.514 105.358 550.373 104.335Z" fill="#2B3237"/>
</g>
<defs>
<clipPath id="clip0_2_114">
<rect width="76" height="76" fill="white" transform="translate(0 219)"/>
</clipPath>
<clipPath id="clip1_2_114">
<rect width="76" height="76" fill="white" transform="translate(521)"/>
</clipPath>
<clipPath id="clip2_2_114">
<rect width="7.95125" height="15.9025" fill="white" transform="translate(83.2825 242) rotate(56.6417)"/>
</clipPath>
<clipPath id="clip3_2_114">
<rect width="7.95125" height="15.9025" fill="white" transform="translate(117.149 207) rotate(30.8244)"/>
</clipPath>
<clipPath id="clip4_2_114">
<rect width="7.95125" height="15.9025" fill="white" transform="translate(142.875 156) rotate(21.6814)"/>
</clipPath>
<clipPath id="clip5_2_114">
<rect width="7.95125" height="15.9025" fill="white" transform="translate(193.017 53) rotate(30.2748)"/>
</clipPath>
<clipPath id="clip6_2_114">
<rect width="7.95125" height="15.9025" fill="white" transform="translate(232.948 10.2078) rotate(57.0189)"/>
</clipPath>
<clipPath id="clip7_2_114">
<rect width="7.95125" height="15.9025" fill="white" transform="translate(290.778 16.9062) rotate(115.74)"/>
</clipPath>
<clipPath id="clip8_2_114">
<rect width="7.95125" height="15.9025" fill="white" transform="translate(328.013 61.5856) rotate(142.319)"/>
</clipPath>
<clipPath id="clip9_2_114">
<rect width="7.59" height="15.9" fill="white" transform="matrix(-0.717496 -0.696562 -0.696562 0.717496 107.828 233.884)"/>
</clipPath>
<clipPath id="clip10_2_114">
<rect width="7.59" height="15.9" fill="white" transform="matrix(-0.874817 -0.484453 -0.484453 0.874817 138.343 185.677)"/>
</clipPath>
<clipPath id="clip11_2_114">
<rect width="7.59" height="15.9" fill="white" transform="matrix(-0.874817 -0.484453 -0.484453 0.874817 162.343 133.677)"/>
</clipPath>
<clipPath id="clip12_2_114">
<rect width="7.59" height="15.9" fill="white" transform="matrix(-0.874817 -0.484453 -0.484453 0.874817 187.343 81.677)"/>
</clipPath>
<clipPath id="clip13_2_114">
<rect width="7.59" height="15.9" fill="white" transform="matrix(-0.768109 -0.640319 -0.640319 0.768109 217.011 33.86)"/>
</clipPath>
<clipPath id="clip14_2_114">
<rect width="7.59" height="15.9" fill="white" transform="matrix(0.71502 -0.699104 -0.699104 -0.71502 306.329 44.0787)"/>
</clipPath>
<clipPath id="clip15_2_114">
<rect width="7.59" height="15.9" fill="white" transform="matrix(0.952783 -0.303651 -0.303651 -0.952783 330.828 93.454)"/>
</clipPath>
<clipPath id="clip16_2_114">
<rect width="7.59" height="15.9" fill="white" transform="matrix(0.00837286 -0.999965 -0.999965 -0.00837286 262.055 13.0666)"/>
</clipPath>
<clipPath id="clip17_2_114">
<rect width="7.95125" height="15.9025" fill="white" transform="translate(165.875 104) rotate(21.6814)"/>
</clipPath>
<clipPath id="clip18_2_114">
<rect width="7.95125" height="15.9025" fill="white" transform="translate(346.845 116.972) rotate(160.307)"/>
</clipPath>
<clipPath id="clip19_2_114">
<rect width="7.95125" height="15.9025" fill="white" transform="translate(354.306 174.713) rotate(171.14)"/>
</clipPath>
<clipPath id="clip20_2_114">
<rect width="7.95125" height="15.9025" fill="white" transform="translate(359.306 230.713) rotate(171.14)"/>
</clipPath>
<clipPath id="clip21_2_114">
<rect width="7.95125" height="15.9025" fill="white" transform="translate(369.189 285.16) rotate(161.488)"/>
</clipPath>
<clipPath id="clip22_2_114">
<rect width="7.95125" height="15.9025" fill="white" transform="translate(406.663 300) rotate(67.2297)"/>
</clipPath>
<clipPath id="clip23_2_114">
<rect width="7.95125" height="15.9025" fill="white" transform="translate(451.53 267.642) rotate(50.8763)"/>
</clipPath>
<clipPath id="clip24_2_114">
<rect width="7.95125" height="15.9025" fill="white" transform="translate(488.083 227.324) rotate(35.6636)"/>
</clipPath>
<clipPath id="clip25_2_114">
<rect width="7.95125" height="15.9025" fill="white" transform="translate(514.817 179.888) rotate(26.2518)"/>
</clipPath>
<clipPath id="clip26_2_114">
<rect width="7.95125" height="15.9025" fill="white" transform="translate(535.861 129) rotate(17.7973)"/>
</clipPath>
<clipPath id="clip27_2_114">
<rect width="7.95125" height="15.9025" fill="white" transform="translate(555.861 80) rotate(17.7973)"/>
</clipPath>
<clipPath id="clip28_2_114">
<rect width="7.59" height="15.9" fill="white" transform="matrix(0.992095 -0.125485 -0.125485 -0.992095 342.262 148.09)"/>
</clipPath>
<clipPath id="clip29_2_114">
<rect width="7.59" height="15.9" fill="white" transform="matrix(0.992095 -0.125485 -0.125485 -0.992095 348.995 203.727)"/>
</clipPath>
<clipPath id="clip30_2_114">
<rect width="7.59" height="15.9" fill="white" transform="matrix(0.992095 -0.125485 -0.125485 -0.992095 354.995 260.727)"/>
</clipPath>
<clipPath id="clip31_2_114">
<rect width="7.59" height="15.9" fill="white" transform="matrix(0.651194 -0.758911 -0.758911 -0.651194 379.067 312.114)"/>
</clipPath>
<clipPath id="clip32_2_114">
<rect width="7.59" height="15.9" fill="white" transform="matrix(-0.530462 -0.847709 -0.847709 0.530462 434.505 292.434)"/>
</clipPath>
<clipPath id="clip33_2_114">
<rect width="7.59" height="15.9" fill="white" transform="matrix(-0.69233 -0.721581 -0.721581 0.69233 476.116 254.669)"/>
</clipPath>
<clipPath id="clip34_2_114">
<rect width="7.59" height="15.9" fill="white" transform="matrix(-0.812899 -0.582405 -0.582405 0.812899 510.43 208.42)"/>
</clipPath>
<clipPath id="clip35_2_114">
<rect width="7.59" height="15.9" fill="white" transform="matrix(-0.902259 -0.431194 -0.431194 0.902259 533.567 158.136)"/>
</clipPath>
<clipPath id="clip36_2_114">
<rect width="7.59" height="15.9" fill="white" transform="matrix(-0.902259 -0.431194 -0.431194 0.902259 554.704 106.273)"/>
</clipPath>
</defs>
</svg>
