<svg width="55" height="50" viewBox="0 0 55 50" fill="none" xmlns="http://www.w3.org/2000/svg">
<g clip-path="url(#clip0_752_10828)">
<path d="M41.8875 36.75H32.6875V34.6C32.6875 32.1281 32.0592 29.8396 31.0003 27.9656C31.1999 27.8913 31.4221 27.8209 31.6612 27.7576C32.3009 27.5883 32.942 27.5012 33.3784 27.5C34.1516 27.8303 35.0075 28.0625 35.9375 28.0625C36.8675 28.0625 37.7234 27.8303 38.4966 27.5C39.7559 27.5033 40.9673 28.1767 41.8978 29.4082C42.8311 30.6435 43.4375 32.3957 43.4375 34.375C43.4375 35.1093 43.2112 35.7366 42.8926 36.1584C42.5743 36.5797 42.209 36.75 41.8875 36.75ZM20.6375 28.625C22.063 28.625 23.3853 28.195 24.5589 27.5H24.7175C26.0245 27.5 27.2822 28.1994 28.2467 29.4759C29.2115 30.7528 29.8375 32.5614 29.8375 34.6V36.625C29.8375 37.3593 29.6112 37.9866 29.2926 38.4084C28.9743 38.8297 28.609 39 28.2875 39H12.9875C12.666 39 12.3007 38.8297 11.9824 38.4084C11.6638 37.9866 11.4375 37.3593 11.4375 36.625V34.6C11.4375 32.5614 12.0635 30.7528 13.0283 29.4759C13.9928 28.1994 15.2505 27.5 16.5575 27.5H16.7171C17.8928 28.1941 19.2105 28.625 20.6375 28.625Z" stroke="#F9FBFF" stroke-width="2"/>
<path d="M26.2929 16.75C26.2929 19.9187 23.7031 22.5 20.4929 22.5C17.2826 22.5 14.6929 19.9187 14.6929 16.75C14.6929 13.5813 17.2826 11 20.4929 11C23.7031 11 26.2929 13.5813 26.2929 16.75Z" stroke="#F9FBFF" stroke-width="2"/>
<path d="M39.9088 18.25C39.9088 20.5903 37.9956 22.5 35.6199 22.5C33.2443 22.5 31.3311 20.5903 31.3311 18.25C31.3311 15.9097 33.2443 14 35.6199 14C37.9956 14 39.9088 15.9097 39.9088 18.25Z" stroke="#F9FBFF" stroke-width="2"/>
</g>
<defs>
<clipPath id="clip0_752_10828">
<rect width="34" height="30" fill="white" transform="translate(10.4375 10)"/>
</clipPath>
</defs>
</svg>
