<svg width="50" height="50" viewBox="0 0 50 50" fill="none" xmlns="http://www.w3.org/2000/svg">
<path d="M11.0008 22.9993L25 11L38.9992 22.9993L39 23V23.0001V37.0001C39 37.5305 38.7893 38.0392 38.4142 38.4143C38.0391 38.7893 37.5304 39.0001 37 39.0001H29V33.0001C29 31.9392 28.5786 30.9218 27.8284 30.1716C27.0783 29.4215 26.0609 29.0001 25 29.0001C23.9391 29.0001 22.9217 29.4215 22.1716 30.1716C21.4214 30.9218 21 31.9392 21 33.0001V39.0001L13 39.0001C12.4696 39.0001 11.9609 38.7893 11.5858 38.4143C11.2107 38.0392 11 37.5305 11 37.0001V23.0001V23L11.0008 22.9993Z" stroke="#F9FBFF" stroke-width="2"/>
</svg>
