<svg width="45" height="50" viewBox="0 0 50 50" fill="none" xmlns="http://www.w3.org/2000/svg">
<g clip-path="url(#clip0_754_11541)">
<path fill-rule="evenodd" clip-rule="evenodd" d="M25 16.5081C22.6455 16.5081 20.3873 17.4028 18.7224 18.9953C17.0575 20.5879 16.1222 22.7478 16.1222 25C16.1222 27.2521 17.0575 29.4121 18.7224 31.0046C20.3873 32.5971 22.6455 33.4918 25 33.4918C27.3546 33.4918 29.6127 32.5971 31.2776 31.0046C32.9425 29.4121 33.8778 27.2521 33.8778 25C33.8778 22.7478 32.9425 20.5879 31.2776 18.9953C29.6127 17.4028 27.3546 16.5081 25 16.5081ZM19.6733 25C19.6733 23.6487 20.2345 22.3527 21.2335 21.3972C22.2324 20.4417 23.5873 19.9049 25 19.9049C26.4127 19.9049 27.7676 20.4417 28.7666 21.3972C29.7655 22.3527 30.3267 23.6487 30.3267 25C30.3267 26.3513 29.7655 27.6472 28.7666 28.6027C27.7676 29.5583 26.4127 30.0951 25 30.0951C23.5873 30.0951 22.2324 29.5583 21.2335 28.6027C20.2345 27.6472 19.6733 26.3513 19.6733 25Z" fill="black"/>
<path fill-rule="evenodd" clip-rule="evenodd" d="M24.9408 0.656677C23.8873 0.656677 23.009 0.656677 22.2893 0.701967C21.5537 0.731269 20.8281 0.876645 20.1421 1.13222C19.3519 1.44492 18.6339 1.90345 18.0291 2.4816C17.4243 3.05976 16.9444 3.74622 16.617 4.50179C16.2737 5.29436 16.1814 6.13222 16.1435 7.04255C16.1397 7.37547 16.0475 7.70203 15.8757 7.99157C15.7038 8.28111 15.4579 8.52415 15.161 8.69789C14.8553 8.85754 14.5122 8.94027 14.164 8.93828C13.8157 8.9363 13.4737 8.84969 13.17 8.68657C12.3272 8.26084 11.5223 7.91891 10.6321 7.80568C9.78444 7.69903 8.92311 7.75313 8.0973 7.96488C7.27149 8.17664 6.49737 8.54191 5.81914 9.03983C5.24569 9.48113 4.75218 10.0098 4.35843 10.6046C3.95597 11.1798 3.51563 11.9067 2.99006 12.7785L2.93088 12.8781C2.40294 13.75 1.96497 14.4769 1.64773 15.0973C1.3163 15.745 1.05588 16.3836 0.961182 17.0901C0.73533 18.7273 1.19859 20.3833 2.24906 21.6938C2.79594 22.3754 3.50853 22.8714 4.31345 23.356C4.61355 23.5257 4.86357 23.7656 5.04 24.0532C5.21643 24.3408 5.31347 24.6666 5.32198 25C5.31347 25.3333 5.21643 25.6591 5.04 25.9467C4.86357 26.2343 4.61355 26.4743 4.31345 26.644C3.50853 27.1286 2.7983 27.6245 2.24906 28.3061C1.7285 28.9549 1.34663 29.6953 1.12525 30.4852C0.90387 31.2752 0.847315 32.099 0.958814 32.9098C1.05588 33.6164 1.31393 34.255 1.64537 34.9026C1.96497 35.5231 2.40294 36.25 2.93088 37.1218L2.99006 37.2214C3.51563 38.0933 3.95597 38.8202 4.35843 39.3954C4.77747 39.9909 5.22728 40.5276 5.81914 40.9579C6.49719 41.4562 7.27123 41.8219 8.09705 42.034C8.92286 42.2461 9.78428 42.3006 10.6321 42.1943C11.5223 42.081 12.3272 41.7414 13.17 41.3134C13.4733 41.1505 13.8149 41.0639 14.1628 41.062C14.5106 41.06 14.8533 41.1426 15.1586 41.3021C15.4572 41.4744 15.7047 41.7171 15.8775 42.0068C16.0503 42.2966 16.1427 42.6238 16.1458 42.9574C16.1814 43.8677 16.2737 44.7056 16.6193 45.4982C16.9462 46.2539 17.4256 46.9407 18.03 47.5193C18.6345 48.0978 19.3521 48.5568 20.1421 48.87C20.8286 49.1417 21.5388 49.2482 22.2893 49.2957C23.009 49.3433 23.8873 49.3433 24.9408 49.3433H25.0592C26.1127 49.3433 26.991 49.3433 27.7107 49.298C28.4635 49.2482 29.1714 49.1417 29.858 48.8677C30.6481 48.555 31.3661 48.0965 31.9709 47.5183C32.5758 46.9402 33.0556 46.2537 33.3831 45.4982C33.7263 44.7056 33.8187 43.8677 33.8565 42.9574C33.8599 42.6241 33.9519 42.2971 34.1237 42.0071C34.2956 41.7171 34.5418 41.4737 34.839 41.2998C35.1449 41.1405 35.4881 41.0582 35.8364 41.0605C36.1846 41.0629 36.5266 41.1499 36.83 41.3134C37.6728 41.7391 38.4778 42.081 39.3679 42.192C41.0795 42.408 42.8108 41.9649 44.1809 40.9601C44.7727 40.5253 45.2225 39.9909 45.6416 39.3954C46.044 38.8202 46.4844 38.0933 47.0099 37.2214L47.0691 37.1218C47.5971 36.25 48.035 35.5231 48.3523 34.9026C48.6837 34.255 48.9441 33.6141 49.0388 32.9098C49.2647 31.2726 48.8014 29.6167 47.751 28.3061C47.2041 27.6245 46.4915 27.1286 45.6866 26.644C45.3865 26.4743 45.1364 26.2343 44.96 25.9467C44.7836 25.6591 44.6865 25.3333 44.678 25C44.678 24.3704 45.0379 23.7454 45.6866 23.356C46.4915 22.8714 47.2017 22.3754 47.751 21.6938C48.2715 21.0451 48.6534 20.3046 48.8748 19.5147C49.0961 18.7248 49.1527 17.9009 49.0412 17.0901C48.9285 16.3942 48.6966 15.7209 48.3546 15.0973C47.9505 14.345 47.5217 13.6049 47.0691 12.8781L47.0099 12.7785C46.5775 12.0405 46.1211 11.3155 45.6416 10.6046C45.2479 10.0104 44.7543 9.48251 44.1809 9.04209C43.5028 8.54377 42.7288 8.1781 41.903 7.96595C41.0771 7.75381 40.2157 7.69935 39.3679 7.80568C38.4778 7.91891 37.6728 8.25858 36.83 8.68657C36.5266 8.84928 36.185 8.93568 35.8372 8.93766C35.4894 8.93964 35.1468 8.85714 34.8414 8.69789C34.5436 8.5247 34.2967 8.28189 34.124 7.99232C33.9513 7.70274 33.8585 7.3759 33.8542 7.04255C33.8187 6.13222 33.7263 5.29436 33.3807 4.50179C33.0538 3.74601 32.5744 3.05924 31.97 2.4807C31.3655 1.90215 30.6479 1.44317 29.858 1.12996C29.1714 0.858217 28.4612 0.751786 27.7107 0.704232C26.991 0.656677 26.1127 0.656677 25.0592 0.656677H24.9408ZM21.501 4.26854C21.6832 4.19608 21.9602 4.13041 22.5308 4.09191C23.1155 4.05342 23.8731 4.05342 25 4.05342C26.1269 4.05342 26.8845 4.05342 27.4692 4.09191C28.0398 4.13041 28.3168 4.19608 28.4991 4.26854C29.2259 4.55613 29.8011 5.10641 30.1018 5.8016C30.1965 6.019 30.2746 6.36093 30.3054 7.16936C30.3764 8.96284 31.3447 10.6906 33.0635 11.6395C34.7822 12.5906 36.83 12.5271 38.4896 11.6893C39.2377 11.3111 39.5857 11.2047 39.8319 11.1752C40.6098 11.0769 41.3966 11.2781 42.0194 11.7346C42.1757 11.8501 42.3745 12.0471 42.6941 12.5C43.0232 12.9665 43.402 13.5937 43.9654 14.5267C44.5289 15.4597 44.9053 16.0892 45.1634 16.5919C45.4167 17.0833 45.4948 17.346 45.5185 17.5339C45.6213 18.278 45.4109 19.0306 44.9337 19.6263C44.7822 19.8143 44.5123 20.0498 43.7974 20.48C42.2064 21.4357 41.1269 23.1023 41.1269 25C41.1269 26.8976 42.2064 28.5643 43.7974 29.5199C44.5123 29.9502 44.7822 30.1857 44.9337 30.3736C45.4119 30.9692 45.6203 31.721 45.5185 32.466C45.4948 32.654 45.4143 32.9189 45.1634 33.408C44.9053 33.913 44.5289 34.5403 43.9654 35.4733C43.402 36.4062 43.0208 37.0335 42.6941 37.5C42.3745 37.9529 42.1757 38.1499 42.0194 38.2654C41.3966 38.7218 40.6098 38.923 39.8319 38.8247C39.5857 38.7953 39.2401 38.6888 38.4896 38.3107C36.8324 37.4728 34.7822 37.4094 33.0635 38.3582C31.3447 39.3093 30.3764 41.0371 30.3054 42.8306C30.2746 43.639 30.1965 43.981 30.1018 44.1983C29.9531 44.5421 29.735 44.8544 29.46 45.1175C29.185 45.3805 28.8584 45.5891 28.4991 45.7314C28.3168 45.8039 28.0398 45.8695 27.4692 45.908C26.8845 45.9465 26.1269 45.9465 25 45.9465C23.8731 45.9465 23.1155 45.9465 22.5308 45.908C21.9602 45.8695 21.6832 45.8039 21.501 45.7314C21.1416 45.5891 20.8151 45.3805 20.54 45.1175C20.265 44.8544 20.0469 44.5421 19.8982 44.1983C19.8035 43.981 19.7254 43.639 19.6946 42.8306C19.6236 41.0371 18.6553 39.3093 16.9366 38.3605C15.2178 37.4094 13.17 37.4728 11.5104 38.3107C10.7623 38.6888 10.4143 38.7953 10.1681 38.8247C9.39024 38.923 8.60341 38.7218 7.98059 38.2654C7.82434 38.1499 7.62548 37.9529 7.30588 37.5C6.86059 36.837 6.43662 36.1611 6.03457 35.4733C5.47112 34.5403 5.0947 33.9108 4.83665 33.408C4.58334 32.9166 4.50522 32.654 4.48154 32.466C4.37876 31.722 4.58909 30.9694 5.06629 30.3736C5.21781 30.1857 5.4877 29.9502 6.20266 29.5199C7.79357 28.5643 8.87311 26.8976 8.87311 25C8.87311 23.1023 7.79357 21.4357 6.20266 20.48C5.4877 20.0498 5.21781 19.8143 5.06629 19.6263C4.58909 19.0306 4.37876 18.278 4.48154 17.5339C4.50522 17.346 4.58571 17.081 4.83665 16.5919C5.0947 16.0869 5.47112 15.4597 6.03457 14.5267C6.59802 13.5937 6.97917 12.9665 7.30588 12.5C7.62548 12.0471 7.82434 11.8501 7.98059 11.7346C8.60341 11.2781 9.39024 11.0769 10.1681 11.1752C10.4143 11.2047 10.76 11.3111 11.5104 11.6893C13.1676 12.5271 15.2178 12.5906 16.9366 11.6395C18.6553 10.6906 19.6236 8.96284 19.6946 7.16936C19.7254 6.36093 19.8035 6.019 19.8982 5.8016C20.1989 5.10641 20.7742 4.55613 21.501 4.26854Z" fill="black"/>
</g>
<defs>
<clipPath id="clip0_754_11541">
<rect width="50" height="50" fill="white"/>
</clipPath>
</defs>
</svg>
