<svg width="31" height="30" viewBox="0 0 31 30" fill="none" xmlns="http://www.w3.org/2000/svg">
<g clip-path="url(#clip0_285_1072)">
<path d="M30.2208 0.27734C30.353 0.409792 30.4434 0.57818 30.4808 0.761585C30.5181 0.94499 30.5008 1.13533 30.4309 1.30896L19.3156 29.0996C19.2177 29.3444 19.0541 29.5574 18.8429 29.7151C18.6318 29.8729 18.3811 29.9693 18.1187 29.9938C17.8562 30.0183 17.5921 29.9699 17.3554 29.8539C17.1187 29.738 16.9186 29.5589 16.777 29.3365L10.7065 19.7941L1.16522 13.7228C0.942341 13.5814 0.76285 13.3811 0.646555 13.1442C0.530261 12.9072 0.481685 12.6427 0.506187 12.3799C0.530689 12.117 0.627317 11.8661 0.785407 11.6547C0.943498 11.4433 1.15691 11.2797 1.40208 11.1819L29.1893 0.0691055C29.3629 -0.000791931 29.5532 -0.0181379 29.7366 0.0192224C29.92 0.0565826 30.0883 0.147003 30.2208 0.27925V0.27734ZM12.6129 19.2362L17.8868 27.5236L26.9277 4.91963L12.6129 19.2362ZM25.5772 3.56897L2.97606 12.6109L11.2643 17.8837L25.5772 3.56897Z" fill="#2B3237"/>
</g>
<defs>
<clipPath id="clip0_285_1072">
<rect width="30" height="30" fill="white" transform="translate(0.5)"/>
</clipPath>
</defs>
</svg>
