<svg width="31" height="30" viewBox="0 0 31 30" fill="none" xmlns="http://www.w3.org/2000/svg">
<g clip-path="url(#clip0_723_722)">
<path d="M20.5471 0.287041L30.3299 10.1732C30.4246 10.2686 30.4999 10.383 30.5514 10.5095C30.6028 10.636 30.6293 10.7721 30.6293 10.9095C30.6293 11.047 30.6028 11.1831 30.5514 11.3096C30.4999 11.4361 30.4246 11.5505 30.3299 11.6459L20.5471 21.532C20.4577 21.6241 20.3517 21.6969 20.2353 21.746C20.1189 21.7951 19.9944 21.8197 19.8688 21.8184C19.6094 21.8184 19.3605 21.7106 19.1771 21.5188C18.9936 21.327 18.8906 21.0669 18.8906 20.7957V15.6958C10.1512 16.064 6.4729 21.1775 6.31638 21.3957C6.19185 21.567 6.01996 21.6942 5.82399 21.7601C5.62801 21.8259 5.41741 21.8272 5.2207 21.7638C5.02449 21.6977 4.85326 21.5685 4.73145 21.3947C4.60965 21.2208 4.54349 21.0112 4.54243 20.7957C4.54243 9.85955 13.1383 6.50508 18.8906 6.16418V1.02339C18.891 0.822255 18.9481 0.625718 19.0549 0.458365C19.1616 0.291012 19.3131 0.160272 19.4906 0.0825005C19.6662 0.00329556 19.8605 -0.019548 20.0486 0.0168702C20.2367 0.0532883 20.4102 0.147326 20.5471 0.287041ZM20.8471 14.6594V18.3548L28.2429 10.9095L20.8471 3.43697V7.15961C20.8437 7.42975 20.7396 7.68783 20.5568 7.87887C20.3741 8.0699 20.1272 8.17878 19.8688 8.18232C18.6036 8.18232 8.32512 8.48231 6.70769 18.1094C10.4591 15.0547 15.1164 13.472 19.8688 13.6367C20.1272 13.6403 20.3741 13.7492 20.5568 13.9402C20.7396 14.1312 20.8437 14.3893 20.8471 14.6594ZM26.3555 22.1225C26.538 21.9313 26.7846 21.8222 27.0429 21.8184C27.3013 21.8219 27.5482 21.9308 27.7309 22.1218C27.9136 22.3129 28.0178 22.5709 28.0212 22.8411V23.5229C28.0212 25.2407 27.3684 26.8882 26.2065 28.1029C25.0445 29.3176 23.4686 30 21.8254 30H6.82508C5.18186 30 3.60594 29.3176 2.44401 28.1029C1.28207 26.8882 0.629303 25.2407 0.629303 23.5229V7.84141C0.629303 6.12357 1.28207 4.47609 2.44401 3.2614C3.60594 2.0467 5.18186 1.36429 6.82508 1.36429H12.6948C12.9542 1.36429 13.2031 1.47204 13.3865 1.66383C13.57 1.85563 13.6731 2.11576 13.6731 2.38699C13.6731 2.65823 13.57 2.91836 13.3865 3.11015C13.2031 3.30195 12.9542 3.4097 12.6948 3.4097H6.82508C5.70183 3.41329 4.62557 3.88136 3.8313 4.71169C3.03704 5.54202 2.58931 6.66716 2.58587 7.84141V23.5229C2.58931 24.6971 3.03704 25.8223 3.8313 26.6526C4.62557 27.4829 5.70183 27.951 6.82508 27.9546H21.8254C22.9487 27.951 24.0249 27.4829 24.8192 26.6526C25.6134 25.8223 26.0612 24.6971 26.0646 23.5229V22.8411C26.0683 22.5711 26.1727 22.3132 26.3555 22.1225Z" fill="#2B3237"/>
</g>
<defs>
<clipPath id="clip0_723_722">
<rect width="30" height="30" fill="white" transform="translate(0.5)"/>
</clipPath>
</defs>
</svg>
